<?xml version="1.0" encoding="UTF-8" standalone="no"?>
<!-- Created with Inkscape (http://www.inkscape.org/) -->

<svg
   xmlns:dc="http://purl.org/dc/elements/1.1/"
   xmlns:cc="http://creativecommons.org/ns#"
   xmlns:rdf="http://www.w3.org/1999/02/22-rdf-syntax-ns#"
   xmlns:svg="http://www.w3.org/2000/svg"
   xmlns="http://www.w3.org/2000/svg"
   xmlns:xlink="http://www.w3.org/1999/xlink"
   xmlns:sodipodi="http://sodipodi.sourceforge.net/DTD/sodipodi-0.dtd"
   xmlns:inkscape="http://www.inkscape.org/namespaces/inkscape"
   sodipodi:docname="assets.svg"
   inkscape:version="0.92.2 5c3e80d, 2017-08-06"
   id="svg8"
   version="1.1"
   viewBox="0 0 210 297"
   height="297mm"
   width="210mm">
  <sodipodi:namedview
     inkscape:snap-global="false"
     inkscape:window-maximized="0"
     inkscape:window-y="0"
     inkscape:window-x="1"
     inkscape:window-height="1041"
     inkscape:window-width="1760"
     showgrid="true"
     inkscape:current-layer="g15751"
     inkscape:document-units="mm"
     inkscape:cy="430.66712"
     inkscape:cx="-1382.7687"
     inkscape:zoom="0.52054311"
     inkscape:pageshadow="2"
     inkscape:pageopacity="0.0"
     borderopacity="1.0"
     bordercolor="#666666"
     pagecolor="#ffffff"
     id="base">
    <inkscape:grid
       type="xygrid"
       id="grid4605" />
  </sodipodi:namedview>
  <defs
     id="defs2">
    <linearGradient
       inkscape:collect="always"
       id="linearGradient15875">
      <stop
         style="stop-color:#ff0000;stop-opacity:1"
         offset="0"
         id="stop15871" />
      <stop
         style="stop-color:#ffffff;stop-opacity:0"
         offset="1"
         id="stop15873" />
    </linearGradient>
    <inkscape:perspective
       sodipodi:type="inkscape:persp3d"
       inkscape:vp_x="0 : 148.5 : 1"
       inkscape:vp_y="0 : 1000 : 0"
       inkscape:vp_z="210 : 148.5 : 1"
       inkscape:persp3d-origin="105 : 99 : 1"
       id="perspective15847" />
    <linearGradient
       inkscape:collect="always"
       id="linearGradient6103-0">
      <stop
         style="stop-color:#0001fe;stop-opacity:0.228"
         offset="0"
         id="stop6099" />
      <stop
         style="stop-color:#180bf5;stop-opacity:0.75"
         offset="1"
         id="stop6101" />
    </linearGradient>
    <filter
       inkscape:label="Rough and Glossy"
       inkscape:menu="Textures"
       inkscape:menu-tooltip="Crumpled glossy paper effect which can be used for pictures as for objects"
       style="color-interpolation-filters:sRGB;"
       id="filter992">
      <feTurbulence
         type="fractalNoise"
         numOctaves="7"
         baseFrequency="0.02"
         seed="55"
         result="result0"
         id="feTurbulence974" />
      <feDiffuseLighting
         surfaceScale="4"
         diffuseConstant="1"
         kernelUnitLength="1"
         result="result1"
         in="result0"
         id="feDiffuseLighting978">
        <feDistantLight
           azimuth="235"
           elevation="60"
           id="feDistantLight976" />
      </feDiffuseLighting>
      <feSpecularLighting
         in="result0"
         surfaceScale="3"
         specularConstant="1"
         specularExponent="25"
         kernelUnitLength="1"
         result="result3"
         id="feSpecularLighting982">
        <feDistantLight
           azimuth="235"
           elevation="55"
           id="feDistantLight980" />
      </feSpecularLighting>
      <feComposite
         in="result1"
         in2="SourceGraphic"
         operator="arithmetic"
         k1="1"
         result="result2"
         id="feComposite984" />
      <feComposite
         in="result2"
         in2="result3"
         operator="arithmetic"
         k2="1"
         k3="1"
         result="result4"
         id="feComposite986" />
      <feComposite
         in2="SourceAlpha"
         operator="in"
         in="result4"
         result="fbSourceGraphic"
         id="feComposite988" />
      <feDisplacementMap
         scale="7"
         yChannelSelector="G"
         xChannelSelector="R"
         in2="result0"
         id="feDisplacementMap990" />
    </filter>
    <filter
       y="-0.15"
       height="1.3"
       x="-0.15"
       width="1.3"
       inkscape:menu-tooltip="Aquarelle paper effect which can be used for pictures as for objects"
       inkscape:menu="Textures"
       inkscape:label="Rough Paper"
       style="color-interpolation-filters:sRGB;"
       id="filter1176">
      <feTurbulence
         type="fractalNoise"
         baseFrequency="0.04"
         numOctaves="5"
         seed="0"
         result="result4"
         id="feTurbulence1162" />
      <feDisplacementMap
         in="SourceGraphic"
         in2="result4"
         yChannelSelector="G"
         xChannelSelector="R"
         scale="10"
         result="result3"
         id="feDisplacementMap1164" />
      <feDiffuseLighting
         lighting-color="rgb(233,230,215)"
         diffuseConstant="1"
         surfaceScale="2"
         result="result1"
         in="result4"
         id="feDiffuseLighting1168">
        <feDistantLight
           azimuth="235"
           elevation="40"
           id="feDistantLight1166" />
      </feDiffuseLighting>
      <feComposite
         operator="in"
         in="result3"
         in2="result1"
         result="result2"
         id="feComposite1170" />
      <feComposite
         in2="result1"
         result="result5"
         operator="arithmetic"
         k1="1.7"
         id="feComposite1172" />
      <feBlend
         in="result5"
         in2="result3"
         mode="normal"
         id="feBlend1174" />
    </filter>
    <filter
       inkscape:label="Rough and Glossy"
       inkscape:menu="Textures"
       inkscape:menu-tooltip="Crumpled glossy paper effect which can be used for pictures as for objects"
       style="color-interpolation-filters:sRGB;"
       id="filter1198">
      <feTurbulence
         type="fractalNoise"
         numOctaves="7"
         baseFrequency="0.02"
         seed="55"
         result="result0"
         id="feTurbulence1180" />
      <feDiffuseLighting
         surfaceScale="4"
         diffuseConstant="1"
         kernelUnitLength="1"
         result="result1"
         in="result0"
         id="feDiffuseLighting1184">
        <feDistantLight
           azimuth="235"
           elevation="60"
           id="feDistantLight1182" />
      </feDiffuseLighting>
      <feSpecularLighting
         in="result0"
         surfaceScale="3"
         specularConstant="1"
         specularExponent="25"
         kernelUnitLength="1"
         result="result3"
         id="feSpecularLighting1188">
        <feDistantLight
           azimuth="235"
           elevation="55"
           id="feDistantLight1186" />
      </feSpecularLighting>
      <feComposite
         in="result1"
         in2="SourceGraphic"
         operator="arithmetic"
         k1="1"
         result="result2"
         id="feComposite1190" />
      <feComposite
         in="result2"
         in2="result3"
         operator="arithmetic"
         k2="1"
         k3="1"
         result="result4"
         id="feComposite1192" />
      <feComposite
         in2="SourceAlpha"
         operator="in"
         in="result4"
         result="fbSourceGraphic"
         id="feComposite1194" />
      <feDisplacementMap
         scale="7"
         yChannelSelector="G"
         xChannelSelector="R"
         in2="result0"
         id="feDisplacementMap1196" />
    </filter>
    <radialGradient
       inkscape:collect="always"
       xlink:href="#linearGradient6103-0"
       id="radialGradient6105"
       cx="167.63243"
       cy="261.28125"
       fx="167.63243"
       fy="261.28125"
       r="36.991205"
       gradientUnits="userSpaceOnUse"
       gradientTransform="translate(-1.889881,-3.7797619)" />
    <radialGradient
       inkscape:collect="always"
       xlink:href="#linearGradient15875"
       id="radialGradient15877"
       cx="-123.40322"
       cy="-135.39406"
       fx="-123.40322"
       fy="-135.39406"
       r="15.791446"
       gradientUnits="userSpaceOnUse"
       gradientTransform="translate(63.615662,-23.361684)" />
  </defs>
  <metadata
     id="metadata5">
    <rdf:RDF>
      <cc:Work
         rdf:about="">
        <dc:format>image/svg+xml</dc:format>
        <dc:type
           rdf:resource="http://purl.org/dc/dcmitype/StillImage" />
        <dc:title />
      </cc:Work>
    </rdf:RDF>
  </metadata>
  <g
     inkscape:label="Layer 1"
     inkscape:groupmode="layer"
     id="layer1">
    <path
       style="fill:#833f00;fill-opacity:1;stroke:#6e2700;stroke-width:1.36500001;stroke-linecap:butt;stroke-linejoin:miter;stroke-miterlimit:4;stroke-dasharray:none;stroke-opacity:1"
       d="M 35.612257,8.0780538 9.909876,35.292339 9.153924,70.066146 l 34.773809,22.67857 52.916669,-13.60714 -0.75596,-24.94643 -5.29166,-39.30952 H 70.386066 Z"
       id="path1200"
       inkscape:connector-curvature="0"
       inkscape:export-filename="/Users/mschierle/Downloads/asteroid_neutral.png"
       inkscape:export-xdpi="66.370369"
       inkscape:export-ydpi="66.370369" />
    <path
       inkscape:connector-curvature="0"
       id="path1235"
       d="m 42.082169,24.708994 -18.872743,16.900952 2.149124,26.86844 21.791013,18.7801 36.692469,-13.54758 5.44806,-18.26435 -4.19683,-28.780184 -18.455677,6.047619 z"
       style="fill:#a75c16;fill-opacity:1;stroke:none;stroke-width:0.20193364;stroke-linecap:butt;stroke-linejoin:miter;stroke-miterlimit:4;stroke-dasharray:none;stroke-opacity:1"
       sodipodi:nodetypes="ccccccccc"
       inkscape:export-filename="/Users/mschierle/Downloads/asteroid_neutral.png"
       inkscape:export-xdpi="66.370369"
       inkscape:export-ydpi="66.370369" />
    <path
       style="fill:#bd6a1d;fill-opacity:1;stroke:none;stroke-width:0.13824962;stroke-linecap:butt;stroke-linejoin:miter;stroke-miterlimit:4;stroke-dasharray:none;stroke-opacity:1"
       d="m 45.452675,34.082804 -14.899225,8.385772 7.521219,15.95043 12.695422,15.00019 23.017781,-10.12422 7.11638,-7.80252 -3.10201,-18.25085 -12.3429,5.29167 z"
       id="path1237"
       inkscape:connector-curvature="0"
       sodipodi:nodetypes="ccccccccc"
       inkscape:export-filename="/Users/mschierle/Downloads/asteroid_neutral.png"
       inkscape:export-xdpi="66.370369"
       inkscape:export-ydpi="66.370369" />
    <ellipse
       style="fill:#a25b14;fill-opacity:1;stroke:none;stroke-width:1.36500001;stroke-miterlimit:4;stroke-dasharray:none;stroke-opacity:1"
       id="path1251"
       cx="71.708977"
       cy="48.332516"
       rx="2.8348215"
       ry="3.2127976"
       inkscape:export-filename="/Users/mschierle/Downloads/asteroid_neutral.png"
       inkscape:export-xdpi="66.370369"
       inkscape:export-ydpi="66.370369" />
    <circle
       style="fill:#a25b14;fill-opacity:1;stroke:none;stroke-width:1.36500001;stroke-miterlimit:4;stroke-dasharray:none;stroke-opacity:1"
       id="path1253"
       cx="53.566128"
       cy="61.183704"
       r="3.5907736"
       inkscape:export-filename="/Users/mschierle/Downloads/asteroid_neutral.png"
       inkscape:export-xdpi="66.370369"
       inkscape:export-ydpi="66.370369" />
    <ellipse
       style="fill:#a25b14;fill-opacity:1;stroke:none;stroke-width:1.36500001;stroke-miterlimit:4;stroke-dasharray:none;stroke-opacity:1"
       id="path1255"
       cx="51.487263"
       cy="46.631626"
       rx="2.6458333"
       ry="2.2678571"
       inkscape:export-filename="/Users/mschierle/Downloads/asteroid_neutral.png"
       inkscape:export-xdpi="66.370369"
       inkscape:export-ydpi="66.370369" />
    <ellipse
       style="fill:#a25b14;fill-opacity:1;stroke:none;stroke-width:1.36500001;stroke-miterlimit:4;stroke-dasharray:none;stroke-opacity:1"
       id="path1257"
       cx="63.771481"
       cy="55.136089"
       rx="2.4568453"
       ry="1.7008928"
       inkscape:export-filename="/Users/mschierle/Downloads/asteroid_neutral.png"
       inkscape:export-xdpi="66.370369"
       inkscape:export-ydpi="66.370369" />
    <path
       inkscape:connector-curvature="0"
       id="path1261"
       d="m 36.146796,112.20573 -27.8405372,34.69783 13.1420632,21.41033 -1.054693,21.49553 25.67226,12.94291 51.313052,-19.48708 -0.75596,-24.94643 -6.895277,-34.49867 -18.807099,-14.43255 z"
       style="fill:#833f00;fill-opacity:1;stroke:#6e2700;stroke-width:1.36500001;stroke-linecap:butt;stroke-linejoin:miter;stroke-miterlimit:4;stroke-dasharray:none;stroke-opacity:1"
       sodipodi:nodetypes="cccccccccc"
       inkscape:export-filename="/Users/mschierle/Downloads/asteroid_red.png"
       inkscape:export-xdpi="66.370369"
       inkscape:export-ydpi="66.370369" />
    <path
       sodipodi:nodetypes="cccccccccc"
       style="fill:#871804;fill-opacity:1;stroke:none;stroke-width:0.20193364;stroke-linecap:butt;stroke-linejoin:miter;stroke-miterlimit:4;stroke-dasharray:none;stroke-opacity:1"
       d="m 41.54763,125.62944 -23.149055,22.24634 12.839905,19.38489 -1.398892,18.20995 16.240897,10.7264 38.296086,-18.35844 5.44806,-18.26435 -7.938603,-25.57295 -15.782982,-9.45401 z"
       id="path1263"
       inkscape:connector-curvature="0"
       inkscape:export-filename="/Users/mschierle/Downloads/asteroid_red.png"
       inkscape:export-xdpi="66.370369"
       inkscape:export-ydpi="66.370369" />
    <path
       sodipodi:nodetypes="ccccccccc"
       inkscape:connector-curvature="0"
       id="path1265"
       d="m 43.314519,135.53778 -14.364686,14.80024 10.728453,16.48497 3.608258,20.34558 34.243101,-15.46961 3.909146,-12.07883 -4.705627,-14.50908 -11.273822,-11.27904 z"
       style="fill:#a70d06;fill-opacity:1;stroke:none;stroke-width:0.13824962;stroke-linecap:butt;stroke-linejoin:miter;stroke-miterlimit:4;stroke-dasharray:none;stroke-opacity:1"
       inkscape:export-filename="/Users/mschierle/Downloads/asteroid_red.png"
       inkscape:export-xdpi="66.370369"
       inkscape:export-ydpi="66.370369" />
    <ellipse
       ry="3.2127976"
       rx="2.8348215"
       cy="152.46019"
       cx="72.243515"
       id="ellipse1267"
       style="fill:#871804;fill-opacity:1;stroke:none;stroke-width:1.36500001;stroke-miterlimit:4;stroke-dasharray:none;stroke-opacity:1"
       inkscape:export-filename="/Users/mschierle/Downloads/asteroid_red.png"
       inkscape:export-xdpi="66.370369"
       inkscape:export-ydpi="66.370369" />
    <circle
       r="3.5907736"
       cy="172.79492"
       cx="57.307899"
       id="circle1269"
       style="fill:#871804;fill-opacity:1;stroke:none;stroke-width:1.36500001;stroke-miterlimit:4;stroke-dasharray:none;stroke-opacity:1"
       inkscape:export-filename="/Users/mschierle/Downloads/asteroid_red.png"
       inkscape:export-xdpi="66.370369"
       inkscape:export-ydpi="66.370369" />
    <ellipse
       ry="2.2678571"
       rx="2.6458333"
       cy="150.75931"
       cx="52.021801"
       id="ellipse1271"
       style="fill:#871804;fill-opacity:1;stroke:none;stroke-width:1.36500001;stroke-miterlimit:4;stroke-dasharray:none;stroke-opacity:1"
       inkscape:export-filename="/Users/mschierle/Downloads/asteroid_red.png"
       inkscape:export-xdpi="66.370369"
       inkscape:export-ydpi="66.370369" />
    <ellipse
       ry="1.7008928"
       rx="2.4568453"
       cy="164.07462"
       cx="65.375099"
       id="ellipse1273"
       style="fill:#871804;fill-opacity:1;stroke:none;stroke-width:1.36500001;stroke-miterlimit:4;stroke-dasharray:none;stroke-opacity:1"
       inkscape:export-filename="/Users/mschierle/Downloads/asteroid_red.png"
       inkscape:export-xdpi="66.370369"
       inkscape:export-ydpi="66.370369" />
    <path
       style="fill:#3d3f0b;fill-opacity:1;stroke:#032000;stroke-width:1.36500001;stroke-linecap:butt;stroke-linejoin:miter;stroke-miterlimit:4;stroke-dasharray:none;stroke-opacity:1"
       d="M 35.612257,207.88822 9.9098759,235.1025 9.153924,269.87631 l 34.773809,22.67858 52.916669,-13.60715 -0.75596,-24.94643 -5.29166,-39.30952 H 70.386066 Z"
       id="path1275"
       inkscape:connector-curvature="0"
       inkscape:export-filename="/Users/mschierle/Downloads/asteroid_green.png"
       inkscape:export-xdpi="66.370369"
       inkscape:export-ydpi="66.370369" />
    <path
       inkscape:connector-curvature="0"
       id="path1277"
       d="m 41.013091,221.31193 -21.010899,16.90095 1.614585,29.54113 25.532786,19.31464 36.692469,-13.54758 5.44806,-18.26435 -4.19683,-28.78018 -18.455677,6.04762 z"
       style="fill:#1b3804;fill-opacity:1;stroke:none;stroke-width:0.20193364;stroke-linecap:butt;stroke-linejoin:miter;stroke-miterlimit:4;stroke-dasharray:none;stroke-opacity:1"
       sodipodi:nodetypes="ccccccccc"
       inkscape:export-filename="/Users/mschierle/Downloads/asteroid_green.png"
       inkscape:export-xdpi="66.370369"
       inkscape:export-ydpi="66.370369" />
    <path
       style="fill:#316500;fill-opacity:1;stroke:none;stroke-width:0.13824962;stroke-linecap:butt;stroke-linejoin:miter;stroke-miterlimit:4;stroke-dasharray:none;stroke-opacity:1"
       d="m 42.77998,231.22027 -12.22653,11.05847 2.175828,22.89944 19.109891,14.46565 25.155937,-12.26238 3.909146,-12.07883 -3.10201,-18.25085 -12.3429,5.29167 z"
       id="path1279"
       inkscape:connector-curvature="0"
       sodipodi:nodetypes="ccccccccc"
       inkscape:export-filename="/Users/mschierle/Downloads/asteroid_green.png"
       inkscape:export-xdpi="66.370369"
       inkscape:export-ydpi="66.370369" />
    <ellipse
       style="fill:#0a3804;fill-opacity:1;stroke:none;stroke-width:1.36500001;stroke-miterlimit:4;stroke-dasharray:none;stroke-opacity:1"
       id="ellipse1281"
       cx="71.708977"
       cy="248.14268"
       rx="2.8348215"
       ry="3.2127976"
       inkscape:export-filename="/Users/mschierle/Downloads/asteroid_green.png"
       inkscape:export-xdpi="66.370369"
       inkscape:export-ydpi="66.370369" />
    <circle
       style="fill:#0a3804;fill-opacity:1;stroke:none;stroke-width:1.36500001;stroke-miterlimit:4;stroke-dasharray:none;stroke-opacity:1"
       id="circle1283"
       cx="50.358894"
       cy="264.20111"
       r="3.5907736"
       inkscape:export-filename="/Users/mschierle/Downloads/asteroid_green.png"
       inkscape:export-xdpi="66.370369"
       inkscape:export-ydpi="66.370369" />
    <ellipse
       style="fill:#0a3804;fill-opacity:1;stroke:none;stroke-width:1.36500001;stroke-miterlimit:4;stroke-dasharray:none;stroke-opacity:1"
       id="ellipse1285"
       cx="51.487263"
       cy="246.4418"
       rx="2.6458333"
       ry="2.2678571"
       inkscape:export-filename="/Users/mschierle/Downloads/asteroid_green.png"
       inkscape:export-xdpi="66.370369"
       inkscape:export-ydpi="66.370369" />
    <ellipse
       style="fill:#0a3804;fill-opacity:1;stroke:none;stroke-width:1.36500001;stroke-miterlimit:4;stroke-dasharray:none;stroke-opacity:1"
       id="ellipse1287"
       cx="64.840561"
       cy="259.75711"
       rx="2.4568453"
       ry="1.7008928"
       inkscape:export-filename="/Users/mschierle/Downloads/asteroid_green.png"
       inkscape:export-xdpi="66.370369"
       inkscape:export-ydpi="66.370369" />
    <rect
       style="fill:#bd6a1d;fill-opacity:1;stroke:#833f00;stroke-width:2.69525886;stroke-linejoin:round;stroke-miterlimit:4;stroke-dasharray:none;stroke-opacity:1"
       id="rect1308"
       width="77.304741"
       height="57.304741"
       x="122.50816"
       y="80.972092"
       rx="7.1857824"
       ry="6.8174124"
       inkscape:export-filename="/Users/mschierle/Downloads/popup.png"
       inkscape:export-xdpi="127"
       inkscape:export-ydpi="127" />
    <path
       inkscape:export-ydpi="66.370369"
       inkscape:export-xdpi="66.370369"
       inkscape:export-filename="/Users/mschierle/Downloads/asteroid_neutral.png"
       inkscape:connector-curvature="0"
       id="path888"
       d="m -64.324673,8.834006 -17.76488,25.324405 17.008929,30.994044 1.889883,29.482147 L -1.580621,79.137576 4.0890143,53.057217 -0.44669078,14.881626 -29.172883,0.14055457 Z"
       style="fill:#ff5424;fill-opacity:1;stroke:#ce1300;stroke-width:1.36500001;stroke-linecap:butt;stroke-linejoin:miter;stroke-miterlimit:4;stroke-dasharray:none;stroke-opacity:1"
       sodipodi:nodetypes="ccccccccc" />
    <path
       inkscape:export-ydpi="66.370369"
       inkscape:export-xdpi="66.370369"
       inkscape:export-filename="/Users/mschierle/Downloads/asteroid_neutral.png"
       sodipodi:nodetypes="ccccccccc"
       style="fill:#ff8424;fill-opacity:1;stroke:none;stroke-width:0.20193364;stroke-linecap:butt;stroke-linejoin:miter;stroke-miterlimit:4;stroke-dasharray:none;stroke-opacity:1"
       d="m -58.232735,20.17328 -15.470959,15.767023 18.780078,23.466654 -0.509581,25.583672 40.850208,-11.279723 11.8736568,-19.776255 -10.6224268,-27.268279 -14.675915,-7.9375 z"
       id="path890"
       inkscape:connector-curvature="0" />
    <path
       inkscape:export-ydpi="66.370369"
       inkscape:export-xdpi="66.370369"
       inkscape:export-filename="/Users/mschierle/Downloads/asteroid_neutral.png"
       sodipodi:nodetypes="ccccccccc"
       inkscape:connector-curvature="0"
       id="path892"
       d="m -54.484252,28.413161 -10.363512,8.007796 16.592646,17.084359 0.600188,19.91388 23.017783,-10.12422 7.116379,-7.80252 -3.102009,-18.25085 -9.319092,-9.449401 z"
       style="fill:#ffa835;fill-opacity:1;stroke:none;stroke-width:0.13824962;stroke-linecap:butt;stroke-linejoin:miter;stroke-miterlimit:4;stroke-dasharray:none;stroke-opacity:1" />
    <ellipse
       inkscape:export-ydpi="66.370369"
       inkscape:export-xdpi="66.370369"
       inkscape:export-filename="/Users/mschierle/Downloads/asteroid_neutral.png"
       ry="3.2127976"
       rx="2.8348215"
       cy="48.332516"
       cx="-26.716036"
       id="ellipse894"
       style="fill:#a25b14;fill-opacity:1;stroke:none;stroke-width:1.36500001;stroke-miterlimit:4;stroke-dasharray:none;stroke-opacity:1" />
    <circle
       inkscape:export-ydpi="66.370369"
       inkscape:export-xdpi="66.370369"
       inkscape:export-filename="/Users/mschierle/Downloads/asteroid_neutral.png"
       r="3.5907736"
       cy="39.639061"
       cx="-36.543415"
       id="circle896"
       style="fill:#a25b14;fill-opacity:1;stroke:none;stroke-width:1.36500001;stroke-miterlimit:4;stroke-dasharray:none;stroke-opacity:1" />
    <ellipse
       inkscape:export-ydpi="66.370369"
       inkscape:export-xdpi="66.370369"
       inkscape:export-filename="/Users/mschierle/Downloads/asteroid_neutral.png"
       ry="2.2678571"
       rx="2.6458333"
       cy="46.631626"
       cx="-46.937759"
       id="ellipse898"
       style="fill:#a25b14;fill-opacity:1;stroke:none;stroke-width:1.36500001;stroke-miterlimit:4;stroke-dasharray:none;stroke-opacity:1" />
    <ellipse
       inkscape:export-ydpi="66.370369"
       inkscape:export-xdpi="66.370369"
       inkscape:export-filename="/Users/mschierle/Downloads/asteroid_neutral.png"
       ry="1.7008928"
       rx="2.4568453"
       cy="55.136089"
       cx="-34.653534"
       id="ellipse900"
       style="fill:#a25b14;fill-opacity:1;stroke:none;stroke-width:1.36500001;stroke-miterlimit:4;stroke-dasharray:none;stroke-opacity:1" />
    <path
       style="fill:#1dbd3f;fill-opacity:1;stroke:#00831e;stroke-width:2.57116914;stroke-linejoin:round;stroke-miterlimit:4;stroke-dasharray:none;stroke-opacity:1"
       d="m -59.040446,119.27046 a 21.217866,28.700908 0 0 0 -21.184714,27.4453 c -6.8171,0.6773 -12.082167,5.7433 -12.082167,11.93475 v 24.36227 c 0,6.65594 6.083762,12.01459 13.640354,12.01459 h 39.7835 c 7.556593,0 13.639836,-5.35865 13.639836,-12.01459 v -24.36227 c 0,-6.3555 -5.54758,-11.52408 -12.627117,-11.97809 a 21.217866,28.700908 0 0 0 -21.169692,-27.40196 z m -0.379187,5.69474 a 14.752468,22.672373 0 0 1 14.729737,21.67117 h -29.449113 a 14.752468,22.672373 0 0 1 14.719376,-21.67117 z"
       id="rect879"
       inkscape:connector-curvature="0"
       inkscape:export-filename="/Users/mschierle/github/performance-game/public/img/shield_powerup.png"
       inkscape:export-xdpi="66.370399"
       inkscape:export-ydpi="66.370399" />
    <flowRoot
       xml:space="preserve"
       id="flowRoot908"
       style="font-style:normal;font-weight:normal;font-size:40px;line-height:1.25;font-family:sans-serif;letter-spacing:0px;word-spacing:0px;fill:#000000;fill-opacity:1;stroke:none"
       transform="matrix(0.26458333,0,0,0.26458333,-1.1339286,-4.1577382)"
       inkscape:export-filename="/Users/mschierle/github/performance-game/public/img/shield_powerup.png"
       inkscape:export-xdpi="66.370399"
       inkscape:export-ydpi="66.370399"><flowRegion
         id="flowRegion910"><rect
           id="rect912"
           width="191.42857"
           height="114.28571"
           x="-314.28571"
           y="613.94824" /></flowRegion><flowPara
         id="flowPara914"
         style="font-style:normal;font-variant:normal;font-weight:normal;font-stretch:normal;font-size:85.33333588px;font-family:Roboto;-inkscape-font-specification:Roboto;text-align:center;text-anchor:middle;fill:#f4f4f4;fill-opacity:1">SSL</flowPara></flowRoot>    <g
       id="g6089"
       transform="rotate(90,180.89316,188.52083)">
      <path
         inkscape:connector-curvature="0"
         id="path6083"
         d="M 204.48512,217.625 H 190.5 l -9.44941,-15.875 v -42.71131 z"
         style="fill:#848080;fill-opacity:1;stroke:#000000;stroke-width:0.26458332px;stroke-linecap:butt;stroke-linejoin:miter;stroke-opacity:1" />
      <path
         style="fill:#4a4646;fill-opacity:1;stroke:#000000;stroke-width:0.26458332px;stroke-linecap:butt;stroke-linejoin:miter;stroke-opacity:1"
         d="m 157.3012,218.00298 h 13.98512 l 9.44941,-15.875 v -42.71131 z"
         id="path6085"
         inkscape:connector-curvature="0" />
    </g>
    <g
       transform="rotate(90,141.58364,217.625)"
       id="g6095"
       inkscape:export-filename="/Users/mschierle/github/performance-game/public/img/ship_shielded.png"
       inkscape:export-xdpi="162.67"
       inkscape:export-ydpi="162.67">
      <path
         style="fill:#848080;fill-opacity:1;stroke:#000000;stroke-width:0.26458332px;stroke-linecap:butt;stroke-linejoin:miter;stroke-opacity:1"
         d="M 204.48512,217.625 H 190.5 l -9.44941,-15.875 v -42.71131 z"
         id="path6091"
         inkscape:connector-curvature="0" />
      <path
         inkscape:connector-curvature="0"
         id="path6093"
         d="m 157.3012,218.00298 h 13.98512 l 9.44941,-15.875 v -42.71131 z"
         style="fill:#4a4646;fill-opacity:1;stroke:#000000;stroke-width:0.26458332px;stroke-linecap:butt;stroke-linejoin:miter;stroke-opacity:1" />
    </g>
    <circle
       style="opacity:0.975;fill:url(#radialGradient6105);fill-opacity:1;stroke:#0a0083;stroke-width:1.03299999;stroke-linejoin:round;stroke-miterlimit:4;stroke-dasharray:none;stroke-opacity:1"
       id="path6097"
       cx="165.74255"
       cy="257.5015"
       r="36.474705"
       inkscape:export-filename="/Users/mschierle/github/performance-game/public/img/ship_shielded.png"
       inkscape:export-xdpi="162.67"
       inkscape:export-ydpi="162.67" />
  </g>
  <g
     id="g14100"
     inkscape:label="Gear14"
     transform="translate(-97.254136,259.06606)"
     style="stroke:none;stroke-opacity:1;fill:#7c7c7c;fill-opacity:0.74901962">
    <path
       style="fill:#7c7c7c;fill-opacity:0.74901961;stroke:none;stroke-width:0.99999994;stroke-opacity:1"
       d="M -384.51367 878.70703 L -395.89258 881.30469 L -397.01172 895.02148 L -396.71289 896.35156 L -392.93555 907.08594 L -408.10352 914.38867 L -414.13867 904.74414 L -414.99219 903.68164 L -426.41602 896.00195 L -435.54102 903.2793 L -430.59766 916.125 L -429.75 917.19336 L -421.69141 925.22461 L -432.1875 938.38672 L -441.81055 932.31641 L -443.04102 931.72852 L -456.66406 929.76758 L -461.72852 940.2832 L -451.69922 949.71094 L -450.47461 950.30664 L -439.72656 954.04492 L -443.47266 970.45703 L -454.77734 969.16406 L -456.14062 969.16797 L -469.26562 973.31055 L -469.26562 984.98438 L -456.14062 989.12695 L -454.77734 989.13086 L -443.47266 987.83789 L -439.72656 1004.25 L -450.47461 1007.9883 L -451.69922 1008.584 L -461.72852 1018.0117 L -456.66406 1028.5273 L -443.04102 1026.5664 L -441.81055 1025.9785 L -432.1875 1019.9082 L -421.69141 1033.0684 L -429.75 1041.0996 L -430.59766 1042.1699 L -435.54102 1055.0137 L -426.41602 1062.291 L -414.99219 1054.6133 L -414.13867 1053.5508 L -408.10352 1043.9043 L -392.93555 1051.209 L -396.71289 1061.9434 L -397.01172 1063.2734 L -395.89258 1076.9902 L -384.51367 1079.5879 L -377.55469 1067.7129 L -377.24609 1066.3848 L -375.99219 1055.0762 L -359.1582 1055.0762 L -357.9043 1066.3848 L -357.5957 1067.7129 L -350.63672 1079.5879 L -339.25586 1076.9902 L -338.13867 1063.2734 L -338.4375 1061.9434 L -342.21484 1051.209 L -327.04688 1043.9043 L -321.00977 1053.5508 L -320.15625 1054.6133 L -308.73438 1062.291 L -299.60742 1055.0137 L -304.55273 1042.1699 L -305.39844 1041.0996 L -313.45898 1033.0684 L -302.96289 1019.9082 L -293.33984 1025.9785 L -292.10938 1026.5664 L -278.48633 1028.5273 L -273.42188 1018.0117 L -283.44922 1008.584 L -284.67578 1007.9883 L -295.42188 1004.25 L -291.67578 987.83789 L -280.37109 989.13086 L -279.00781 989.12695 L -265.88281 984.98438 L -265.88281 973.31055 L -279.00781 969.16797 L -280.37109 969.16406 L -291.67578 970.45703 L -295.42188 954.04492 L -284.67578 950.30664 L -283.44922 949.71094 L -273.42188 940.2832 L -278.48633 929.76758 L -292.10938 931.72852 L -293.33984 932.31641 L -302.96289 938.38672 L -313.45898 925.22461 L -305.39844 917.19336 L -304.55273 916.125 L -299.60742 903.2793 L -308.73438 896.00195 L -320.15625 903.68164 L -321.00977 904.74414 L -327.04688 914.38867 L -342.21484 907.08594 L -338.4375 896.35156 L -338.13867 895.02148 L -339.25586 881.30469 L -350.63672 878.70703 L -357.5957 890.58008 L -357.9043 891.9082 L -359.1582 903.21875 L -375.99219 903.21875 L -377.24609 891.9082 L -377.55469 890.58008 L -384.51367 878.70703 z M -367.57422 964.14648 A 15 15 0 0 1 -352.57422 979.14648 A 15 15 0 0 1 -367.57422 994.14648 A 15 15 0 0 1 -382.57422 979.14648 A 15 15 0 0 1 -367.57422 964.14648 z "
       transform="matrix(0.26458333,0,0,0.26458333,97.254136,-259.06606)"
       id="path14096" />
  </g>
  <g
     transform="translate(-57.566636,250.75059)"
     inkscape:label="Gear16"
     id="g14534"
     style="fill:#252525;fill-opacity:0.74901961">
    <path
       style="fill:#252525;fill-opacity:0.74901961;stroke:#000000;stroke-width:0.99999994"
       d="M -220.56836 890.50195 L -222.56641 897.03516 L -222.58008 897.8125 L -222.02148 903.37695 L -230.43359 905.05078 L -232.04883 899.69727 L -232.35938 898.98242 L -236.70508 893.71094 L -242.23828 896.00195 L -241.58203 902.80273 L -241.29688 903.52734 L -238.65234 908.45508 L -245.7832 913.2207 L -249.32422 908.89062 L -249.88477 908.34961 L -255.91602 905.14258 L -260.15039 909.37695 L -256.94336 915.41016 L -256.40234 915.9707 L -252.07422 919.50977 L -256.83789 926.64062 L -261.76562 923.99609 L -262.49023 923.71094 L -269.29102 923.05664 L -271.58203 928.58984 L -266.31055 932.93555 L -265.59766 933.24609 L -260.24219 934.85938 L -261.91602 943.27148 L -267.48047 942.71289 L -268.25977 942.72656 L -274.79297 944.72461 L -274.79297 950.71289 L -268.25977 952.71094 L -267.48047 952.72461 L -261.91602 952.16602 L -260.24219 960.57812 L -265.59766 962.19141 L -266.31055 962.50195 L -271.58203 966.84766 L -269.29102 972.38086 L -262.49023 971.72656 L -261.76562 971.44141 L -256.83789 968.79688 L -252.07422 975.92773 L -256.40234 979.4668 L -256.94336 980.02734 L -260.15039 986.06055 L -255.91602 990.29492 L -249.88477 987.08789 L -249.32422 986.54688 L -245.7832 982.2168 L -238.65234 986.98242 L -241.29688 991.91016 L -241.58203 992.63477 L -242.23828 999.43555 L -236.70508 1001.7266 L -232.35938 996.45508 L -232.04883 995.74023 L -230.43359 990.38672 L -222.02148 992.06055 L -222.58008 997.625 L -222.56641 998.40234 L -220.56836 1004.9355 L -214.58008 1004.9355 L -212.58203 998.40234 L -212.56836 997.625 L -213.12695 992.06055 L -204.71484 990.38672 L -203.10156 995.74023 L -202.79102 996.45508 L -198.44531 1001.7266 L -192.91211 999.43555 L -193.56641 992.63477 L -193.85156 991.91016 L -196.49805 986.98242 L -189.36523 982.2168 L -185.82617 986.54688 L -185.26562 987.08789 L -179.23242 990.29492 L -174.99805 986.06055 L -178.20508 980.02734 L -178.74609 979.4668 L -183.07617 975.92773 L -178.31055 968.79688 L -173.38281 971.44141 L -172.6582 971.72656 L -165.85938 972.38086 L -163.56641 966.84766 L -168.83789 962.50195 L -169.55273 962.19141 L -174.90625 960.57812 L -173.23438 952.16602 L -167.66992 952.72461 L -166.89062 952.71094 L -160.35742 950.71289 L -160.35742 944.72461 L -166.89062 942.72656 L -167.66992 942.71289 L -173.23438 943.27148 L -174.90625 934.85938 L -169.55273 933.24609 L -168.83789 932.93555 L -163.56641 928.58984 L -165.85938 923.05664 L -172.6582 923.71094 L -173.38281 923.99609 L -178.31055 926.64062 L -183.07617 919.50977 L -178.74609 915.9707 L -178.20508 915.41016 L -174.99805 909.37695 L -179.23242 905.14258 L -185.26562 908.34961 L -185.82617 908.89062 L -189.36523 913.2207 L -196.49805 908.45508 L -193.85156 903.52734 L -193.56641 902.80273 L -192.91211 896.00195 L -198.44531 893.71094 L -202.79102 898.98242 L -203.10156 899.69727 L -204.71484 905.05078 L -213.12695 903.37695 L -212.56836 897.8125 L -212.58203 897.03516 L -214.58008 890.50195 L -220.56836 890.50195 z M -217.57422 932.71875 A 15 15 0 0 1 -202.57422 947.71875 A 15 15 0 0 1 -217.57422 962.71875 A 15 15 0 0 1 -232.57422 947.71875 A 15 15 0 0 1 -217.57422 932.71875 z "
       transform="matrix(0.26458333,0,0,0.26458333,57.566636,-250.75059)"
       id="path14530" />
  </g>
  <g
     id="g15751"
     inkscape:label="Gear12"
     transform="translate(-64.748183,271.91725)"
     style="fill:#a6a4a4;fill-opacity:0.74901961">
    <path
       style="fill:#a6a4a4;fill-opacity:0.74901961;stroke:#000000;stroke-width:0.99999994"
       d="M -246.55273 998.81055 L -247.95898 1003.1035 L -247.95312 1003.4824 L -247.45508 1007.2109 L -252.60156 1008.5898 L -254.0332 1005.1113 L -254.21875 1004.7812 L -257.58203 1001.7656 L -260.76172 1003.6016 L -259.83203 1008.0215 L -259.63672 1008.3477 L -257.3418 1011.3262 L -261.10938 1015.0938 L -264.08984 1012.7988 L -264.41602 1012.6035 L -268.83398 1011.6758 L -270.66992 1014.8535 L -267.65625 1018.2168 L -267.32422 1018.4023 L -263.84766 1019.8359 L -265.22656 1024.9805 L -268.95312 1024.4844 L -269.33398 1024.4785 L -273.625 1025.8828 L -273.625 1029.5547 L -269.33398 1030.959 L -268.95312 1030.9531 L -265.22656 1030.457 L -263.84766 1035.6016 L -267.32422 1037.0352 L -267.65625 1037.2207 L -270.66992 1040.584 L -268.83398 1043.7617 L -264.41602 1042.834 L -264.08984 1042.6387 L -261.10938 1040.3438 L -257.3418 1044.1113 L -259.63672 1047.0898 L -259.83203 1047.416 L -260.76172 1051.8359 L -257.58203 1053.6719 L -254.21875 1050.6562 L -254.0332 1050.3262 L -252.60156 1046.8477 L -247.45508 1048.2266 L -247.95312 1051.9551 L -247.95898 1052.334 L -246.55273 1056.627 L -242.88281 1056.627 L -241.47656 1052.334 L -241.48242 1051.9551 L -241.98047 1048.2266 L -236.83398 1046.8477 L -235.40039 1050.3262 L -235.2168 1050.6562 L -231.85352 1053.6719 L -228.67383 1051.8359 L -229.60352 1047.416 L -229.79883 1047.0898 L -232.0918 1044.1113 L -228.32617 1040.3438 L -225.3457 1042.6387 L -225.01953 1042.834 L -220.59961 1043.7617 L -218.76562 1040.584 L -221.7793 1037.2207 L -222.11133 1037.0352 L -225.58789 1035.6016 L -224.20898 1030.457 L -220.48242 1030.9531 L -220.10156 1030.959 L -215.80859 1029.5547 L -215.80859 1025.8828 L -220.10156 1024.4785 L -220.48242 1024.4844 L -224.20898 1024.9805 L -225.58789 1019.8359 L -222.11133 1018.4023 L -221.7793 1018.2168 L -218.76562 1014.8535 L -220.59961 1011.6758 L -225.01953 1012.6035 L -225.3457 1012.7988 L -228.32617 1015.0938 L -232.0918 1011.3262 L -229.79883 1008.3477 L -229.60352 1008.0215 L -228.67383 1003.6016 L -231.85352 1001.7656 L -235.2168 1004.7812 L -235.40039 1005.1113 L -236.83398 1008.5898 L -241.98047 1007.2109 L -241.48242 1003.4824 L -241.47656 1003.1035 L -242.88281 998.81055 L -246.55273 998.81055 z M -244.7168 1020.2188 A 7.5 7.5 0 0 1 -237.2168 1027.7188 A 7.5 7.5 0 0 1 -244.7168 1035.2188 A 7.5 7.5 0 0 1 -252.2168 1027.7188 A 7.5 7.5 0 0 1 -244.7168 1020.2188 z "
       transform="matrix(0.26458333,0,0,0.26458333,64.748183,-271.91725)"
       id="path15747" />
    <circle
       style="opacity:0.75;fill:url(#radialGradient15877);fill-opacity:1;stroke:none;stroke-width:1.03299999;stroke-linejoin:round;stroke-miterlimit:4;stroke-dasharray:none;stroke-opacity:1"
       id="path15869"
       cx="-59.78756"
       cy="-158.75574"
       r="15.274946"
       inkscape:export-filename="/Users/mschierle/github/performance-game/public/img/explosion_particle.gif.png"
       inkscape:export-xdpi="24.942802"
       inkscape:export-ydpi="24.942802" />
    <g
       id="g15925"
       inkscape:export-filename="/Users/mschierle/github/performance-game/public/img/explosion_particle.png"
       inkscape:export-xdpi="7.8031607"
       inkscape:export-ydpi="7.8031607">
      <path
         id="path15879"
         d="M -684.30664 580.56641 C -695.8118 588.63872 -696.93361 604.03233 -697.23242 616.87695 C -705.47945 619.9553 -716.74865 612.4172 -722.83008 621.18359 C -727.34681 628.04325 -725.49466 636.97107 -722.04297 643.86133 C -742.78687 651.72758 -762.79653 633.03298 -783.68164 638.96484 C -791.59724 647.91474 -778.91266 662.76873 -768.5957 657.94531 C -750.90717 659.48484 -749.485 690.07073 -767.01562 693.1582 C -779.63013 692.04994 -782.30196 677.5677 -788.10938 668.81836 C -798.72459 668.59819 -801.51877 682.38337 -798.81836 690.53711 C -795.75146 699.14855 -788.0299 708.68575 -794.16406 717.84375 C -797.6743 725.69319 -806.52898 729.14588 -814 730.89844 C -819.30016 739.05985 -810.42449 746.92393 -803.30469 749.63086 C -792.04212 753.60441 -791.5054 768.24586 -795.76953 777.56641 C -798.33276 784.13181 -806.0322 789.87786 -804.39648 797.39258 C -799.68872 803.95762 -791.56871 795.31395 -791.22461 789.7168 C -790.65893 786.84704 -786.87463 793.06002 -785.44166 794.71154 C -781.18021 800.95322 -778.86837 808.56499 -779.22461 816.13477 C -791.4595 815.46219 -804.78226 817.6389 -814.16602 826.12109 C -802.8533 831.36902 -787.17064 829.96841 -779.98047 841.97266 C -778.41248 853.51577 -783.31378 864.86785 -789.87305 874.09961 C -778.03439 882.14227 -762.73876 876.03985 -752.47656 868.22852 C -747.78517 867.58383 -742.69646 868.94106 -739.32422 872.36133 C -748.40244 879.12612 -761.88939 875.72216 -769.96094 884.30078 C -758.29718 887.40714 -744.28748 881.17833 -734.35156 890.10156 C -729.66997 903.56147 -746.40545 916.45941 -737.71484 929.41602 C -725.08688 941.64488 -702.55955 937.07526 -693.09961 923.11523 C -675.35462 916.26725 -655.83076 930.08732 -650.24414 946.93164 C -645.3391 953.30282 -634.1835 942.74563 -641.49609 938.20898 C -646.57315 931.43737 -656.7072 927.03983 -656.50977 917.36914 C -648.13609 906.54233 -632.29771 912.06984 -623.17578 918.94531 C -612.43849 927.16742 -605.14035 943.09504 -589.69336 942.64453 C -578.52581 938.53393 -578.87583 920.55187 -589.22656 915.67578 C -592.92681 907.86504 -578.87851 904.36739 -576.92773 911.91602 C -570.1153 914.13863 -566.90064 902.96175 -572.95117 900.08398 C -579.90619 888.84096 -565.07961 875.85988 -553.96875 880.05664 C -550.42607 882.4254 -545.78655 882.07717 -547.15625 876.75781 C -547.91665 871.94338 -554.07305 870.53576 -556.13672 867.83008 C -555.63293 856.95273 -541.02568 854.10646 -533.24986 859.28511 C -525.94312 860.71354 -518.51889 862.97311 -511.00977 861.75195 C -508.66552 852.85458 -516.81293 845.22451 -524.63477 842.77734 C -527.81823 834.05214 -517.95037 828.17816 -510.92773 825.99805 C -508.70071 814.15142 -521.62253 802.41514 -513.38467 791.18443 C -507.17842 775.09539 -488.92849 770.09155 -476.18555 761.17188 C -472.48737 749.30567 -488.97673 739.66323 -498.2168 746.94922 C -513.94764 747.52107 -523.59084 724.65994 -511.2168 714.30664 C -508.45283 710.70011 -505.64472 702.2136 -511.42493 700.72855 C -516.18793 702.81294 -526.14043 704.59587 -525.6582 696.54883 C -525.6109 686.68472 -520.01789 673.59272 -529.39969 666.32502 C -539.35668 662.46511 -547.9207 672.10346 -551.67383 680.07031 C -561.94456 685.11709 -571.12014 666.01796 -560.05273 661.76758 C -550.89039 654.93883 -543.66849 639.54326 -553.57422 630.31641 C -565.4838 618.73217 -583.38535 623.81941 -597.34961 627.71094 C -612.62122 625.89477 -619.64754 608.47967 -618.23047 594.86719 C -622.56498 586.01516 -638.06088 590.88734 -636.64453 600.66016 C -639.03464 609.4387 -653.19956 609.0573 -654.54688 599.78125 C -655.95844 595.39005 -654.81735 587.14005 -659.93164 585.99219 C -662.02273 591.92242 -659.20163 598.36023 -660.19219 604.52741 C -660.07202 610.98637 -660.42511 617.56754 -662.49805 623.73633 C -679.80779 620.9003 -686.49003 599.29411 -680.91406 584.41406 C -680.86215 582.636 -681.59935 578.08342 -684.30664 580.56641 z "
         style="opacity:1;fill:#ff0000;fill-opacity:1;stroke:none;stroke-width:5.93088675;stroke-linejoin:round;stroke-miterlimit:4;stroke-dasharray:none;stroke-opacity:0"
         transform="matrix(0.26458333,0,0,0.26458333,64.748183,-271.91725)" />
      <path
         id="ellipse15889"
         transform="matrix(0.26458333,0,0,0.26458333,64.748183,-271.91725)"
         d="M -723.15625 630.77539 C -715.3111 642.40946 -714.08334 662.57433 -728.37891 669.81445 C -735.23578 672.14793 -742.92412 671.33139 -749.41602 668.25781 C -734.75186 684.92773 -748.15769 715.66982 -770.34961 716.27148 C -784.33164 722.85706 -798.79649 729.98316 -808.7793 742.18555 C -794.47982 747.27651 -778.81746 738.20311 -764.83594 744.99023 C -759.90773 768.79526 -775.78506 791.6714 -770.2168 815.45508 C -773.13092 825.16726 -774.18083 837.14063 -767.08984 845.37695 C -756.83799 843.71933 -745.37881 834.11465 -735.54102 842.08398 C -717.56537 856.28728 -713.20708 880.70879 -712.79102 902.35352 C -705.32363 911.62714 -689.00076 897.62161 -696.86133 888.77148 C -699.00454 877.19604 -680.0891 868.90183 -674.12305 879.81641 C -673.80949 888.35756 -687.39913 889.49671 -685.75977 898.44141 C -668.01892 897.92625 -656.60739 878.26728 -638.29883 880.46094 C -626.09515 886.93325 -628.77777 906.08809 -614.92188 910.87305 C -606.82032 914.04787 -600.71475 903.91171 -604.99609 897.33984 C -608.40491 892.73814 -613.02071 888.21448 -611.09961 881.85547 C -608.84452 869.75137 -596.69993 863.35303 -585.64306 861.18457 C -570.98313 856.30682 -555.35365 852.62133 -542.95898 842.89062 C -546.4056 835.17975 -556.95766 828.33624 -551.91016 818.86719 C -546.60997 806.51597 -526.95952 807.01435 -525.02148 792.48047 C -526.18536 783.44162 -538.87263 784.64189 -544.06641 789.48242 C -550.96358 792.39613 -553.71974 783.37742 -553.36131 778.12984 C -553.57935 773.58906 -553.55492 764.2974 -546.57422 767.0293 C -540.01018 771.05944 -533.56568 781.02605 -524.7207 775.71289 C -520.26678 772.8461 -515.781 766.311 -517.80859 760.96289 C -528.73356 754.71646 -541.102 749.09056 -546.94102 737.11483 C -552.58031 728.03729 -553.50266 717.07715 -552.48828 706.74414 C -555.13633 691.39816 -571.52495 685.59646 -583.4445 678.83724 C -628.06892 656.77304 -680.76617 656.5764 -723.5293 630.08008 L -723.15625 630.77539 z M -766.33203 658.30469 C -771.71159 655.58594 -777.09115 652.86719 -782.4707 650.14844 C -777.09115 652.86719 -771.71159 655.58594 -766.33203 658.30469 z M -781.45508 654.87695 L -781.46484 654.15234 L -781.45508 654.87695 z M -773.46094 656.74609 L -773.44531 656.46094 L -773.46094 656.74609 z M -767.05469 658.4082 L -767.30273 658.36133 L -767.05469 658.4082 z M -763.80469 661.4043 C -761.69661 661.04677 -760.86793 660.90623 -763.80469 661.4043 z M -758.16406 662.78906 L -757.66406 662.45703 L -758.16406 662.78906 z M -756.36719 663.53711 C -755.84306 663.56893 -757.64013 663.04166 -756.36719 663.53711 z M -764.04688 665.02344 C -763.96168 665.40257 -763.82778 663.9106 -764.04688 665.02344 z M -763.73633 667.25586 C -763.62011 668.21885 -763.74986 665.75671 -763.73633 667.25586 z M -746.11133 669.26953 L -745.91406 668.88281 L -746.11133 669.26953 z M -548.33203 685.85938 C -548.6304 683.75782 -548.75242 682.89838 -548.33203 685.85938 z "
         style="opacity:1;fill:#ff6a00;fill-opacity:1;stroke:none;stroke-width:4.85411692;stroke-linejoin:round;stroke-miterlimit:4;stroke-dasharray:none;stroke-opacity:0" />
      <path
         id="ellipse15891"
         transform="matrix(0.26458333,0,0,0.26458333,64.748183,-271.91725)"
         d="M -677.89648 664.01367 C -685.69344 667.17475 -688.4561 677.17389 -696.94727 679.17188 C -704.66149 665.40561 -729.81221 676.86938 -724.47852 691.72266 C -726.35736 706.79985 -734.94079 720.89166 -732.96484 736.42969 C -742.80328 744.95136 -758.58117 752.19378 -757.71289 767.45508 C -756.73783 778.82429 -746.98937 789.39484 -735.27734 789.60156 C -730.38926 798.2515 -728.36266 810.83106 -717.27312 813.7125 C -702.29451 825.30011 -695.95259 847.03922 -676.64062 853.04688 C -658.99594 852.98353 -648.96455 830.91303 -630.57031 834.49023 C -617.54338 838.1398 -618.98568 858.0916 -604.92773 860.11523 C -594.24517 857.47236 -593.92752 842.3145 -600.74609 835.55859 C -606.027 819.15329 -591.11374 802.93637 -575.35807 801.00908 C -565.58892 794.0334 -568.31071 777.79945 -578.66236 772.76075 C -588.34656 764.79482 -596.93245 751.21224 -590.36754 738.67415 C -586.90237 729.9805 -578.70924 722.98967 -569.24805 722.06641 C -567.71117 712.10478 -580.16943 709.41988 -587.64258 708.51367 C -596.82565 708.31293 -606.08476 717.85173 -614.82617 712.63477 C -613.9688 707.38312 -603.97675 705.94057 -607.70703 699.34766 C -612.3685 692.14142 -619.55335 682.39051 -629.48438 685.76562 C -636.04833 687.81512 -642.24907 693.35266 -649.50391 690.36328 C -656.14429 690.86836 -664.39709 694.08494 -669.04102 687.20703 C -674.31044 680.46206 -667.03232 668.46874 -676.0957 664.08789 C -676.68849 663.97494 -677.29659 663.96533 -677.89648 664.01367 z "
         style="opacity:1;fill:#ffb200;fill-opacity:1;stroke:none;stroke-width:3.20174003;stroke-linejoin:round;stroke-miterlimit:4;stroke-dasharray:none;stroke-opacity:0" />
      <path
         id="ellipse15893"
         transform="matrix(0.26458333,0,0,0.26458333,64.748183,-271.91725)"
         d="M -625.69531 685.16211 C -635.49903 688.14066 -641.48309 700.44067 -652.80664 698.7168 C -667.51351 705.7686 -668.14888 728.99762 -686.04102 731.2793 C -696.96343 732.72242 -707.07486 722.78631 -707.48047 712.11328 C -716.9973 711.08591 -717.16276 723.57496 -716.62334 730.22153 C -715.45603 746.5001 -701.1362 761.18164 -707.34961 777.94727 C -712.3705 787.03828 -723.58223 791.92747 -725.89844 802.63086 C -720.98079 811.37701 -708.57607 807.27294 -703.76562 800.81055 C -689.09595 797.183 -678.28803 817.83816 -687.48047 828.79883 C -687.49113 839.37109 -667.84994 842.16269 -667.51205 830.32816 C -666.55277 820.8398 -665.30157 807.12166 -653.70639 804.98614 C -638.28211 800.30717 -624.40747 811.59739 -612.16602 818.70312 C -602.43237 815.13583 -605.69585 800.15011 -614.49414 797.5625 C -622.48395 789.8751 -626.08121 773.34422 -614.73828 766.98242 C -607.74146 764.18152 -596.42854 764.88592 -594.62305 755.51367 C -596.04558 745.60616 -608.29024 743.44972 -616.44531 745.46484 C -628.33954 741.58331 -631.20318 727.55546 -639.76953 719.86328 C -643.92986 708.5351 -630.84743 700.12598 -620.90625 699.93945 C -618.13753 698.96334 -609.10768 699.0066 -612.67578 694.12695 C -615.33891 689.32285 -619.66047 684.56908 -625.69531 685.16211 z "
         style="opacity:1;fill:#ffec00;fill-opacity:1;stroke:none;stroke-width:1.66998339;stroke-linejoin:round;stroke-miterlimit:4;stroke-dasharray:none;stroke-opacity:0" />
    </g>
    <g
       id="g1061"
       transform="matrix(2.0833333,0,0,2.0833333,-210.96425,-24.069845)"
       style="fill:none;fill-rule:nonzero"
       inkscape:export-filename="/Users/mschierle/github/performance-game/public/img/pwa_installable.png"
       inkscape:export-xdpi="26.540001"
       inkscape:export-ydpi="26.540001">
      <circle
         id="circle1057"
         r="12"
         cy="12"
         cx="12"
         style="fill:#d4ecd5" />
      <path
         id="path1059"
         d="m 12,5 a 7,7 0 1 0 0,14 7,7 0 0 0 0,-14 z m 3.5,7.7 h -2.8 v 2.8 H 11.3 V 12.7 H 8.5 v -1.4 h 2.8 V 8.5 h 1.4 v 2.8 h 2.8 z"
         inkscape:connector-curvature="0"
         style="fill:#009688" />
    </g>
    <g
       id="g1130"
       transform="matrix(2.0833333,0,0,2.0833333,-208.80779,-139.08121)"
       style="fill:none;fill-rule:nonzero"
       inkscape:export-filename="/Users/mschierle/github/performance-game/public/img/pwa_reliable.png"
       inkscape:export-xdpi="26.540001"
       inkscape:export-ydpi="26.540001">
      <circle
         id="circle1126"
         r="12"
         cy="12"
         cx="12"
         style="fill:#cce3f6" />
      <path
         id="path1128"
         d="m 12,4.3 6.3,2.8 v 4.2 c 0,3.88 -2.69,7.52 -6.3,8.4 C 8.39,18.82 5.7,15.19 5.7,11.3 V 7.1 Z m -0.56,12.88 3.3,-5.79 0.04,-0.08 c 0.05,-0.1 0.01,-0.29 -0.26,-0.29 H 12.56 L 13.12,7.1 H 12.56 L 9.3,12.82 c 0,0.03 0.07,-0.12 -0.03,0.07 -0.11,0.2 -0.12,0.37 0.2,0.37 h 1.97 l -0.56,3.92 z"
         inkscape:connector-curvature="0"
         style="fill:#304ffe" />
    </g>
    <g
       id="g1203"
       transform="matrix(2.0833333,0,0,2.0833333,-209.5266,-81.216118)"
       style="fill:none;fill-rule:evenodd"
       inkscape:export-filename="/Users/mschierle/github/performance-game/public/img/pwa_optimized.png"
       inkscape:export-xdpi="26.540001"
       inkscape:export-ydpi="26.540001">
      <rect
         id="rect1197"
         rx="12"
         height="24"
         width="24"
         x="0"
         y="0"
         style="fill:#fce4ec" />
      <path
         id="path1199"
         d="M 5,5 H 19 V 19 H 5 Z"
         inkscape:connector-curvature="0" />
      <path
         id="path1201"
         d="m 12,15.07 3.6,2.18 -0.95,-4.1 3.18,-2.76 -4.2,-0.36 -1.63,-3.86 -1.64,3.86 -4.2,0.36 3.2,2.76 -0.96,4.1 z"
         inkscape:connector-curvature="0"
         style="fill:#ec3f7a" />
    </g>
    <g
       style="fill:none;fill-rule:nonzero"
       transform="matrix(2.0833333,0,0,2.0833333,-119.31456,-14.365761)"
       id="g942"
       inkscape:export-filename="/Users/mschierle/github/performance-game/public/img/pwa_secure.png"
       inkscape:export-xdpi="26.540001"
       inkscape:export-ydpi="26.540001">
      <circle
         style="fill:#d4ecd5"
         cx="12"
         cy="12"
         r="12"
         id="circle938" />
    </g>
    <text
       xml:space="preserve"
       style="font-style:normal;font-weight:normal;font-size:32.35334015px;line-height:1.25;font-family:sans-serif;letter-spacing:0px;word-spacing:0px;fill:#000000;fill-opacity:1;stroke:none;stroke-width:0.80883354"
       x="-110.49123"
       y="27.506001"
       id="text1284"
       inkscape:export-filename="/Users/mschierle/github/performance-game/public/img/pwa_secure.png"
       inkscape:export-xdpi="26.540001"
       inkscape:export-ydpi="26.540001"><tspan
         sodipodi:role="line"
         id="tspan1282"
         x="-110.49123"
         y="27.506001"
         style="stroke-width:0.80883354;fill:#51b555;fill-opacity:1"></tspan></text>
    <g
       inkscape:export-ydpi="26.540001"
       inkscape:export-xdpi="26.540001"
       inkscape:export-filename="/Users/mschierle/github/performance-game/public/img/pwa_reliable.png"
       style="fill:none;fill-rule:nonzero"
       transform="matrix(2.0833333,0,0,2.0833333,-288.95634,-131.53359)"
       id="g943">
      <circle
         style="fill:#febd4e;fill-opacity:0.74901962"
         cx="12"
         cy="12"
         r="12"
         id="circle939"
         inkscape:export-filename="/Users/mschierle/github/performance-game/public/img/seo_powerup.png"
         inkscape:export-xdpi="26.540001"
         inkscape:export-ydpi="26.540001" />
      <text
         xml:space="preserve"
         style="font-style:normal;font-weight:normal;font-size:5.07999992px;line-height:1.25;font-family:sans-serif;letter-spacing:0px;word-spacing:0px;fill:#ef2e09;fill-opacity:1;stroke:none;stroke-width:0.127;"
         x="2.3654454"
         y="15.081983"
         id="text947"
         inkscape:export-filename="/Users/mschierle/github/performance-game/public/img/seo_powerup.png"
         inkscape:export-xdpi="26.540001"
         inkscape:export-ydpi="26.540001"><tspan
           sodipodi:role="line"
           id="tspan945"
           x="2.3654454"
           y="15.081983"
           style="font-style:normal;font-variant:normal;font-weight:bold;font-stretch:normal;font-size:8.46666718px;font-family:sans-serif;-inkscape-font-specification:'sans-serif Bold';stroke-width:0.127;fill:#ef2e09;fill-opacity:1;">SEO</tspan></text>
    </g>
    <circle
       style="opacity:1;fill:#36c504;fill-opacity:0.74901962;stroke:none;stroke-width:1.03299999;stroke-linejoin:round;stroke-miterlimit:4;stroke-dasharray:none;stroke-opacity:0"
       id="path921"
       cx="-163.72513"
       cy="189.15863"
       r="9.9115238"
       inkscape:export-filename="/Users/mschierle/github/performance-game/public/img/bullet_strong.png"
       inkscape:export-xdpi="7.6880207"
       inkscape:export-ydpi="7.6880207"
       transform="scale(1,-1)" />
    <circle
       transform="scale(1,-1)"
       inkscape:export-ydpi="7.6880207"
       inkscape:export-xdpi="7.6880207"
       inkscape:export-filename="/Users/mschierle/github/performance-game/public/img/bullet.png"
       r="9.9115238"
       cy="199.3243"
       cx="-130.68672"
       id="circle923"
       style="opacity:1;fill:#f30012;fill-opacity:0.99526066;stroke:none;stroke-width:1.03299999;stroke-linejoin:round;stroke-miterlimit:4;stroke-dasharray:none;stroke-opacity:0" />
  </g>
</svg>
