<?xml version="1.0" encoding="UTF-8" standalone="no"?>
<!-- Created with Inkscape (http://www.inkscape.org/) -->

<svg
   xmlns:dc="http://purl.org/dc/elements/1.1/"
   xmlns:cc="http://creativecommons.org/ns#"
   xmlns:rdf="http://www.w3.org/1999/02/22-rdf-syntax-ns#"
   xmlns:svg="http://www.w3.org/2000/svg"
   xmlns="http://www.w3.org/2000/svg"
   xmlns:xlink="http://www.w3.org/1999/xlink"
   xmlns:sodipodi="http://sodipodi.sourceforge.net/DTD/sodipodi-0.dtd"
   xmlns:inkscape="http://www.inkscape.org/namespaces/inkscape"
   sodipodi:docname="assets.svg"
   inkscape:version="0.92.2 5c3e80d, 2017-08-06"
   id="svg8"
   version="1.1"
   viewBox="0 0 210 297"
   height="297mm"
   width="210mm">
  <sodipodi:namedview
     inkscape:snap-global="false"
     inkscape:window-maximized="0"
     inkscape:window-y="35"
     inkscape:window-x="134"
     inkscape:window-height="1035"
     inkscape:window-width="1522"
     showgrid="true"
     inkscape:current-layer="g15751"
     inkscape:document-units="mm"
     inkscape:cy="349.7561"
     inkscape:cx="163.01966"
     inkscape:zoom="0.73615912"
     inkscape:pageshadow="2"
     inkscape:pageopacity="0.0"
     borderopacity="1.0"
     bordercolor="#666666"
     pagecolor="#ffffff"
     id="base">
    <inkscape:grid
       type="xygrid"
       id="grid4605" />
  </sodipodi:namedview>
  <defs
     id="defs2">
    <linearGradient
       inkscape:collect="always"
       id="linearGradient6103-0">
      <stop
         style="stop-color:#0001fe;stop-opacity:0.228"
         offset="0"
         id="stop6099" />
      <stop
         style="stop-color:#180bf5;stop-opacity:0.75"
         offset="1"
         id="stop6101" />
    </linearGradient>
    <filter
       inkscape:label="Rough and Glossy"
       inkscape:menu="Textures"
       inkscape:menu-tooltip="Crumpled glossy paper effect which can be used for pictures as for objects"
       style="color-interpolation-filters:sRGB;"
       id="filter992">
      <feTurbulence
         type="fractalNoise"
         numOctaves="7"
         baseFrequency="0.02"
         seed="55"
         result="result0"
         id="feTurbulence974" />
      <feDiffuseLighting
         surfaceScale="4"
         diffuseConstant="1"
         kernelUnitLength="1"
         result="result1"
         in="result0"
         id="feDiffuseLighting978">
        <feDistantLight
           azimuth="235"
           elevation="60"
           id="feDistantLight976" />
      </feDiffuseLighting>
      <feSpecularLighting
         in="result0"
         surfaceScale="3"
         specularConstant="1"
         specularExponent="25"
         kernelUnitLength="1"
         result="result3"
         id="feSpecularLighting982">
        <feDistantLight
           azimuth="235"
           elevation="55"
           id="feDistantLight980" />
      </feSpecularLighting>
      <feComposite
         in="result1"
         in2="SourceGraphic"
         operator="arithmetic"
         k1="1"
         result="result2"
         id="feComposite984" />
      <feComposite
         in="result2"
         in2="result3"
         operator="arithmetic"
         k2="1"
         k3="1"
         result="result4"
         id="feComposite986" />
      <feComposite
         in2="SourceAlpha"
         operator="in"
         in="result4"
         result="fbSourceGraphic"
         id="feComposite988" />
      <feDisplacementMap
         scale="7"
         yChannelSelector="G"
         xChannelSelector="R"
         in2="result0"
         id="feDisplacementMap990" />
    </filter>
    <filter
       y="-0.15"
       height="1.3"
       x="-0.15"
       width="1.3"
       inkscape:menu-tooltip="Aquarelle paper effect which can be used for pictures as for objects"
       inkscape:menu="Textures"
       inkscape:label="Rough Paper"
       style="color-interpolation-filters:sRGB;"
       id="filter1176">
      <feTurbulence
         type="fractalNoise"
         baseFrequency="0.04"
         numOctaves="5"
         seed="0"
         result="result4"
         id="feTurbulence1162" />
      <feDisplacementMap
         in="SourceGraphic"
         in2="result4"
         yChannelSelector="G"
         xChannelSelector="R"
         scale="10"
         result="result3"
         id="feDisplacementMap1164" />
      <feDiffuseLighting
         lighting-color="rgb(233,230,215)"
         diffuseConstant="1"
         surfaceScale="2"
         result="result1"
         in="result4"
         id="feDiffuseLighting1168">
        <feDistantLight
           azimuth="235"
           elevation="40"
           id="feDistantLight1166" />
      </feDiffuseLighting>
      <feComposite
         operator="in"
         in="result3"
         in2="result1"
         result="result2"
         id="feComposite1170" />
      <feComposite
         in2="result1"
         result="result5"
         operator="arithmetic"
         k1="1.7"
         id="feComposite1172" />
      <feBlend
         in="result5"
         in2="result3"
         mode="normal"
         id="feBlend1174" />
    </filter>
    <filter
       inkscape:label="Rough and Glossy"
       inkscape:menu="Textures"
       inkscape:menu-tooltip="Crumpled glossy paper effect which can be used for pictures as for objects"
       style="color-interpolation-filters:sRGB;"
       id="filter1198">
      <feTurbulence
         type="fractalNoise"
         numOctaves="7"
         baseFrequency="0.02"
         seed="55"
         result="result0"
         id="feTurbulence1180" />
      <feDiffuseLighting
         surfaceScale="4"
         diffuseConstant="1"
         kernelUnitLength="1"
         result="result1"
         in="result0"
         id="feDiffuseLighting1184">
        <feDistantLight
           azimuth="235"
           elevation="60"
           id="feDistantLight1182" />
      </feDiffuseLighting>
      <feSpecularLighting
         in="result0"
         surfaceScale="3"
         specularConstant="1"
         specularExponent="25"
         kernelUnitLength="1"
         result="result3"
         id="feSpecularLighting1188">
        <feDistantLight
           azimuth="235"
           elevation="55"
           id="feDistantLight1186" />
      </feSpecularLighting>
      <feComposite
         in="result1"
         in2="SourceGraphic"
         operator="arithmetic"
         k1="1"
         result="result2"
         id="feComposite1190" />
      <feComposite
         in="result2"
         in2="result3"
         operator="arithmetic"
         k2="1"
         k3="1"
         result="result4"
         id="feComposite1192" />
      <feComposite
         in2="SourceAlpha"
         operator="in"
         in="result4"
         result="fbSourceGraphic"
         id="feComposite1194" />
      <feDisplacementMap
         scale="7"
         yChannelSelector="G"
         xChannelSelector="R"
         in2="result0"
         id="feDisplacementMap1196" />
    </filter>
    <radialGradient
       inkscape:collect="always"
       xlink:href="#linearGradient6103-0"
       id="radialGradient6105"
       cx="167.63243"
       cy="261.28125"
       fx="167.63243"
       fy="261.28125"
       r="36.991205"
       gradientUnits="userSpaceOnUse"
       gradientTransform="translate(-1.889881,-3.7797619)" />
  </defs>
  <metadata
     id="metadata5">
    <rdf:RDF>
      <cc:Work
         rdf:about="">
        <dc:format>image/svg+xml</dc:format>
        <dc:type
           rdf:resource="http://purl.org/dc/dcmitype/StillImage" />
        <dc:title />
      </cc:Work>
    </rdf:RDF>
  </metadata>
  <g
     inkscape:label="Layer 1"
     inkscape:groupmode="layer"
     id="layer1">
    <path
       style="fill:#833f00;fill-opacity:1;stroke:#6e2700;stroke-width:1.36500001;stroke-linecap:butt;stroke-linejoin:miter;stroke-miterlimit:4;stroke-dasharray:none;stroke-opacity:1"
       d="M 35.612257,8.0780538 9.909876,35.292339 9.153924,70.066146 l 34.773809,22.67857 52.916669,-13.60714 -0.75596,-24.94643 -5.29166,-39.30952 H 70.386066 Z"
       id="path1200"
       inkscape:connector-curvature="0"
       inkscape:export-filename="/Users/mschierle/Downloads/asteroid_neutral.png"
       inkscape:export-xdpi="66.370369"
       inkscape:export-ydpi="66.370369" />
    <path
       inkscape:connector-curvature="0"
       id="path1235"
       d="m 42.082169,24.708994 -18.872743,16.900952 2.149124,26.86844 21.791013,18.7801 36.692469,-13.54758 5.44806,-18.26435 -4.19683,-28.780184 -18.455677,6.047619 z"
       style="fill:#a75c16;fill-opacity:1;stroke:none;stroke-width:0.20193364;stroke-linecap:butt;stroke-linejoin:miter;stroke-miterlimit:4;stroke-dasharray:none;stroke-opacity:1"
       sodipodi:nodetypes="ccccccccc"
       inkscape:export-filename="/Users/mschierle/Downloads/asteroid_neutral.png"
       inkscape:export-xdpi="66.370369"
       inkscape:export-ydpi="66.370369" />
    <path
       style="fill:#bd6a1d;fill-opacity:1;stroke:none;stroke-width:0.13824962;stroke-linecap:butt;stroke-linejoin:miter;stroke-miterlimit:4;stroke-dasharray:none;stroke-opacity:1"
       d="m 45.452675,34.082804 -14.899225,8.385772 7.521219,15.95043 12.695422,15.00019 23.017781,-10.12422 7.11638,-7.80252 -3.10201,-18.25085 -12.3429,5.29167 z"
       id="path1237"
       inkscape:connector-curvature="0"
       sodipodi:nodetypes="ccccccccc"
       inkscape:export-filename="/Users/mschierle/Downloads/asteroid_neutral.png"
       inkscape:export-xdpi="66.370369"
       inkscape:export-ydpi="66.370369" />
    <ellipse
       style="fill:#a25b14;fill-opacity:1;stroke:none;stroke-width:1.36500001;stroke-miterlimit:4;stroke-dasharray:none;stroke-opacity:1"
       id="path1251"
       cx="71.708977"
       cy="48.332516"
       rx="2.8348215"
       ry="3.2127976"
       inkscape:export-filename="/Users/mschierle/Downloads/asteroid_neutral.png"
       inkscape:export-xdpi="66.370369"
       inkscape:export-ydpi="66.370369" />
    <circle
       style="fill:#a25b14;fill-opacity:1;stroke:none;stroke-width:1.36500001;stroke-miterlimit:4;stroke-dasharray:none;stroke-opacity:1"
       id="path1253"
       cx="53.566128"
       cy="61.183704"
       r="3.5907736"
       inkscape:export-filename="/Users/mschierle/Downloads/asteroid_neutral.png"
       inkscape:export-xdpi="66.370369"
       inkscape:export-ydpi="66.370369" />
    <ellipse
       style="fill:#a25b14;fill-opacity:1;stroke:none;stroke-width:1.36500001;stroke-miterlimit:4;stroke-dasharray:none;stroke-opacity:1"
       id="path1255"
       cx="51.487263"
       cy="46.631626"
       rx="2.6458333"
       ry="2.2678571"
       inkscape:export-filename="/Users/mschierle/Downloads/asteroid_neutral.png"
       inkscape:export-xdpi="66.370369"
       inkscape:export-ydpi="66.370369" />
    <ellipse
       style="fill:#a25b14;fill-opacity:1;stroke:none;stroke-width:1.36500001;stroke-miterlimit:4;stroke-dasharray:none;stroke-opacity:1"
       id="path1257"
       cx="63.771481"
       cy="55.136089"
       rx="2.4568453"
       ry="1.7008928"
       inkscape:export-filename="/Users/mschierle/Downloads/asteroid_neutral.png"
       inkscape:export-xdpi="66.370369"
       inkscape:export-ydpi="66.370369" />
    <path
       inkscape:connector-curvature="0"
       id="path1261"
       d="m 36.146796,112.20573 -27.8405372,34.69783 13.1420632,21.41033 -1.054693,21.49553 25.67226,12.94291 51.313052,-19.48708 -0.75596,-24.94643 -6.895277,-34.49867 -18.807099,-14.43255 z"
       style="fill:#833f00;fill-opacity:1;stroke:#6e2700;stroke-width:1.36500001;stroke-linecap:butt;stroke-linejoin:miter;stroke-miterlimit:4;stroke-dasharray:none;stroke-opacity:1"
       sodipodi:nodetypes="cccccccccc"
       inkscape:export-filename="/Users/mschierle/Downloads/asteroid_red.png"
       inkscape:export-xdpi="66.370369"
       inkscape:export-ydpi="66.370369" />
    <path
       sodipodi:nodetypes="cccccccccc"
       style="fill:#871804;fill-opacity:1;stroke:none;stroke-width:0.20193364;stroke-linecap:butt;stroke-linejoin:miter;stroke-miterlimit:4;stroke-dasharray:none;stroke-opacity:1"
       d="m 41.54763,125.62944 -23.149055,22.24634 12.839905,19.38489 -1.398892,18.20995 16.240897,10.7264 38.296086,-18.35844 5.44806,-18.26435 -7.938603,-25.57295 -15.782982,-9.45401 z"
       id="path1263"
       inkscape:connector-curvature="0"
       inkscape:export-filename="/Users/mschierle/Downloads/asteroid_red.png"
       inkscape:export-xdpi="66.370369"
       inkscape:export-ydpi="66.370369" />
    <path
       sodipodi:nodetypes="ccccccccc"
       inkscape:connector-curvature="0"
       id="path1265"
       d="m 43.314519,135.53778 -14.364686,14.80024 10.728453,16.48497 3.608258,20.34558 34.243101,-15.46961 3.909146,-12.07883 -4.705627,-14.50908 -11.273822,-11.27904 z"
       style="fill:#a70d06;fill-opacity:1;stroke:none;stroke-width:0.13824962;stroke-linecap:butt;stroke-linejoin:miter;stroke-miterlimit:4;stroke-dasharray:none;stroke-opacity:1"
       inkscape:export-filename="/Users/mschierle/Downloads/asteroid_red.png"
       inkscape:export-xdpi="66.370369"
       inkscape:export-ydpi="66.370369" />
    <ellipse
       ry="3.2127976"
       rx="2.8348215"
       cy="152.46019"
       cx="72.243515"
       id="ellipse1267"
       style="fill:#871804;fill-opacity:1;stroke:none;stroke-width:1.36500001;stroke-miterlimit:4;stroke-dasharray:none;stroke-opacity:1"
       inkscape:export-filename="/Users/mschierle/Downloads/asteroid_red.png"
       inkscape:export-xdpi="66.370369"
       inkscape:export-ydpi="66.370369" />
    <circle
       r="3.5907736"
       cy="172.79492"
       cx="57.307899"
       id="circle1269"
       style="fill:#871804;fill-opacity:1;stroke:none;stroke-width:1.36500001;stroke-miterlimit:4;stroke-dasharray:none;stroke-opacity:1"
       inkscape:export-filename="/Users/mschierle/Downloads/asteroid_red.png"
       inkscape:export-xdpi="66.370369"
       inkscape:export-ydpi="66.370369" />
    <ellipse
       ry="2.2678571"
       rx="2.6458333"
       cy="150.75931"
       cx="52.021801"
       id="ellipse1271"
       style="fill:#871804;fill-opacity:1;stroke:none;stroke-width:1.36500001;stroke-miterlimit:4;stroke-dasharray:none;stroke-opacity:1"
       inkscape:export-filename="/Users/mschierle/Downloads/asteroid_red.png"
       inkscape:export-xdpi="66.370369"
       inkscape:export-ydpi="66.370369" />
    <ellipse
       ry="1.7008928"
       rx="2.4568453"
       cy="164.07462"
       cx="65.375099"
       id="ellipse1273"
       style="fill:#871804;fill-opacity:1;stroke:none;stroke-width:1.36500001;stroke-miterlimit:4;stroke-dasharray:none;stroke-opacity:1"
       inkscape:export-filename="/Users/mschierle/Downloads/asteroid_red.png"
       inkscape:export-xdpi="66.370369"
       inkscape:export-ydpi="66.370369" />
    <path
       style="fill:#3d3f0b;fill-opacity:1;stroke:#032000;stroke-width:1.36500001;stroke-linecap:butt;stroke-linejoin:miter;stroke-miterlimit:4;stroke-dasharray:none;stroke-opacity:1"
       d="M 35.612257,207.88822 9.9098759,235.1025 9.153924,269.87631 l 34.773809,22.67858 52.916669,-13.60715 -0.75596,-24.94643 -5.29166,-39.30952 H 70.386066 Z"
       id="path1275"
       inkscape:connector-curvature="0"
       inkscape:export-filename="/Users/mschierle/Downloads/asteroid_green.png"
       inkscape:export-xdpi="66.370369"
       inkscape:export-ydpi="66.370369" />
    <path
       inkscape:connector-curvature="0"
       id="path1277"
       d="m 41.013091,221.31193 -21.010899,16.90095 1.614585,29.54113 25.532786,19.31464 36.692469,-13.54758 5.44806,-18.26435 -4.19683,-28.78018 -18.455677,6.04762 z"
       style="fill:#1b3804;fill-opacity:1;stroke:none;stroke-width:0.20193364;stroke-linecap:butt;stroke-linejoin:miter;stroke-miterlimit:4;stroke-dasharray:none;stroke-opacity:1"
       sodipodi:nodetypes="ccccccccc"
       inkscape:export-filename="/Users/mschierle/Downloads/asteroid_green.png"
       inkscape:export-xdpi="66.370369"
       inkscape:export-ydpi="66.370369" />
    <path
       style="fill:#316500;fill-opacity:1;stroke:none;stroke-width:0.13824962;stroke-linecap:butt;stroke-linejoin:miter;stroke-miterlimit:4;stroke-dasharray:none;stroke-opacity:1"
       d="m 42.77998,231.22027 -12.22653,11.05847 2.175828,22.89944 19.109891,14.46565 25.155937,-12.26238 3.909146,-12.07883 -3.10201,-18.25085 -12.3429,5.29167 z"
       id="path1279"
       inkscape:connector-curvature="0"
       sodipodi:nodetypes="ccccccccc"
       inkscape:export-filename="/Users/mschierle/Downloads/asteroid_green.png"
       inkscape:export-xdpi="66.370369"
       inkscape:export-ydpi="66.370369" />
    <ellipse
       style="fill:#0a3804;fill-opacity:1;stroke:none;stroke-width:1.36500001;stroke-miterlimit:4;stroke-dasharray:none;stroke-opacity:1"
       id="ellipse1281"
       cx="71.708977"
       cy="248.14268"
       rx="2.8348215"
       ry="3.2127976"
       inkscape:export-filename="/Users/mschierle/Downloads/asteroid_green.png"
       inkscape:export-xdpi="66.370369"
       inkscape:export-ydpi="66.370369" />
    <circle
       style="fill:#0a3804;fill-opacity:1;stroke:none;stroke-width:1.36500001;stroke-miterlimit:4;stroke-dasharray:none;stroke-opacity:1"
       id="circle1283"
       cx="50.358894"
       cy="264.20111"
       r="3.5907736"
       inkscape:export-filename="/Users/mschierle/Downloads/asteroid_green.png"
       inkscape:export-xdpi="66.370369"
       inkscape:export-ydpi="66.370369" />
    <ellipse
       style="fill:#0a3804;fill-opacity:1;stroke:none;stroke-width:1.36500001;stroke-miterlimit:4;stroke-dasharray:none;stroke-opacity:1"
       id="ellipse1285"
       cx="51.487263"
       cy="246.4418"
       rx="2.6458333"
       ry="2.2678571"
       inkscape:export-filename="/Users/mschierle/Downloads/asteroid_green.png"
       inkscape:export-xdpi="66.370369"
       inkscape:export-ydpi="66.370369" />
    <ellipse
       style="fill:#0a3804;fill-opacity:1;stroke:none;stroke-width:1.36500001;stroke-miterlimit:4;stroke-dasharray:none;stroke-opacity:1"
       id="ellipse1287"
       cx="64.840561"
       cy="259.75711"
       rx="2.4568453"
       ry="1.7008928"
       inkscape:export-filename="/Users/mschierle/Downloads/asteroid_green.png"
       inkscape:export-xdpi="66.370369"
       inkscape:export-ydpi="66.370369" />
    <rect
       style="fill:#bd6a1d;fill-opacity:1;stroke:#833f00;stroke-width:2.69525886;stroke-linejoin:round;stroke-miterlimit:4;stroke-dasharray:none;stroke-opacity:1"
       id="rect1308"
       width="77.304741"
       height="57.304741"
       x="122.50816"
       y="80.972092"
       rx="7.1857824"
       ry="6.8174124"
       inkscape:export-filename="/Users/mschierle/Downloads/popup.png"
       inkscape:export-xdpi="127"
       inkscape:export-ydpi="127" />
    <path
       inkscape:export-ydpi="66.370369"
       inkscape:export-xdpi="66.370369"
       inkscape:export-filename="/Users/mschierle/Downloads/asteroid_neutral.png"
       inkscape:connector-curvature="0"
       id="path888"
       d="m -64.324673,8.834006 -17.76488,25.324405 17.008929,30.994044 1.889883,29.482147 L -1.580621,79.137576 4.0890143,53.057217 -0.44669078,14.881626 -29.172883,0.14055457 Z"
       style="fill:#ff5424;fill-opacity:1;stroke:#ce1300;stroke-width:1.36500001;stroke-linecap:butt;stroke-linejoin:miter;stroke-miterlimit:4;stroke-dasharray:none;stroke-opacity:1"
       sodipodi:nodetypes="ccccccccc" />
    <path
       inkscape:export-ydpi="66.370369"
       inkscape:export-xdpi="66.370369"
       inkscape:export-filename="/Users/mschierle/Downloads/asteroid_neutral.png"
       sodipodi:nodetypes="ccccccccc"
       style="fill:#ff8424;fill-opacity:1;stroke:none;stroke-width:0.20193364;stroke-linecap:butt;stroke-linejoin:miter;stroke-miterlimit:4;stroke-dasharray:none;stroke-opacity:1"
       d="m -58.232735,20.17328 -15.470959,15.767023 18.780078,23.466654 -0.509581,25.583672 40.850208,-11.279723 11.8736568,-19.776255 -10.6224268,-27.268279 -14.675915,-7.9375 z"
       id="path890"
       inkscape:connector-curvature="0" />
    <path
       inkscape:export-ydpi="66.370369"
       inkscape:export-xdpi="66.370369"
       inkscape:export-filename="/Users/mschierle/Downloads/asteroid_neutral.png"
       sodipodi:nodetypes="ccccccccc"
       inkscape:connector-curvature="0"
       id="path892"
       d="m -54.484252,28.413161 -10.363512,8.007796 16.592646,17.084359 0.600188,19.91388 23.017783,-10.12422 7.116379,-7.80252 -3.102009,-18.25085 -9.319092,-9.449401 z"
       style="fill:#ffa835;fill-opacity:1;stroke:none;stroke-width:0.13824962;stroke-linecap:butt;stroke-linejoin:miter;stroke-miterlimit:4;stroke-dasharray:none;stroke-opacity:1" />
    <ellipse
       inkscape:export-ydpi="66.370369"
       inkscape:export-xdpi="66.370369"
       inkscape:export-filename="/Users/mschierle/Downloads/asteroid_neutral.png"
       ry="3.2127976"
       rx="2.8348215"
       cy="48.332516"
       cx="-26.716036"
       id="ellipse894"
       style="fill:#a25b14;fill-opacity:1;stroke:none;stroke-width:1.36500001;stroke-miterlimit:4;stroke-dasharray:none;stroke-opacity:1" />
    <circle
       inkscape:export-ydpi="66.370369"
       inkscape:export-xdpi="66.370369"
       inkscape:export-filename="/Users/mschierle/Downloads/asteroid_neutral.png"
       r="3.5907736"
       cy="39.639061"
       cx="-36.543415"
       id="circle896"
       style="fill:#a25b14;fill-opacity:1;stroke:none;stroke-width:1.36500001;stroke-miterlimit:4;stroke-dasharray:none;stroke-opacity:1" />
    <ellipse
       inkscape:export-ydpi="66.370369"
       inkscape:export-xdpi="66.370369"
       inkscape:export-filename="/Users/mschierle/Downloads/asteroid_neutral.png"
       ry="2.2678571"
       rx="2.6458333"
       cy="46.631626"
       cx="-46.937759"
       id="ellipse898"
       style="fill:#a25b14;fill-opacity:1;stroke:none;stroke-width:1.36500001;stroke-miterlimit:4;stroke-dasharray:none;stroke-opacity:1" />
    <ellipse
       inkscape:export-ydpi="66.370369"
       inkscape:export-xdpi="66.370369"
       inkscape:export-filename="/Users/mschierle/Downloads/asteroid_neutral.png"
       ry="1.7008928"
       rx="2.4568453"
       cy="55.136089"
       cx="-34.653534"
       id="ellipse900"
       style="fill:#a25b14;fill-opacity:1;stroke:none;stroke-width:1.36500001;stroke-miterlimit:4;stroke-dasharray:none;stroke-opacity:1" />
    <path
       style="fill:#1dbd3f;fill-opacity:1;stroke:#00831e;stroke-width:2.57116914;stroke-linejoin:round;stroke-miterlimit:4;stroke-dasharray:none;stroke-opacity:1"
       d="m -59.040446,119.27046 a 21.217866,28.700908 0 0 0 -21.184714,27.4453 c -6.8171,0.6773 -12.082167,5.7433 -12.082167,11.93475 v 24.36227 c 0,6.65594 6.083762,12.01459 13.640354,12.01459 h 39.7835 c 7.556593,0 13.639836,-5.35865 13.639836,-12.01459 v -24.36227 c 0,-6.3555 -5.54758,-11.52408 -12.627117,-11.97809 a 21.217866,28.700908 0 0 0 -21.169692,-27.40196 z m -0.379187,5.69474 a 14.752468,22.672373 0 0 1 14.729737,21.67117 h -29.449113 a 14.752468,22.672373 0 0 1 14.719376,-21.67117 z"
       id="rect879"
       inkscape:connector-curvature="0"
       inkscape:export-filename="/Users/mschierle/github/performance-game/public/img/shield_powerup.png"
       inkscape:export-xdpi="66.370399"
       inkscape:export-ydpi="66.370399" />
    <flowRoot
       xml:space="preserve"
       id="flowRoot908"
       style="font-style:normal;font-weight:normal;font-size:40px;line-height:1.25;font-family:sans-serif;letter-spacing:0px;word-spacing:0px;fill:#000000;fill-opacity:1;stroke:none"
       transform="matrix(0.26458333,0,0,0.26458333,-1.1339286,-4.1577382)"
       inkscape:export-filename="/Users/mschierle/github/performance-game/public/img/shield_powerup.png"
       inkscape:export-xdpi="66.370399"
       inkscape:export-ydpi="66.370399"><flowRegion
         id="flowRegion910"><rect
           id="rect912"
           width="191.42857"
           height="114.28571"
           x="-314.28571"
           y="613.94824" /></flowRegion><flowPara
         id="flowPara914"
         style="font-style:normal;font-variant:normal;font-weight:normal;font-stretch:normal;font-size:85.33333588px;font-family:Roboto;-inkscape-font-specification:Roboto;text-align:center;text-anchor:middle;fill:#f4f4f4;fill-opacity:1">SSL</flowPara></flowRoot>    <g
       id="g6089"
       transform="rotate(90,180.89316,188.52083)">
      <path
         inkscape:connector-curvature="0"
         id="path6083"
         d="M 204.48512,217.625 H 190.5 l -9.44941,-15.875 v -42.71131 z"
         style="fill:#848080;fill-opacity:1;stroke:#000000;stroke-width:0.26458332px;stroke-linecap:butt;stroke-linejoin:miter;stroke-opacity:1" />
      <path
         style="fill:#4a4646;fill-opacity:1;stroke:#000000;stroke-width:0.26458332px;stroke-linecap:butt;stroke-linejoin:miter;stroke-opacity:1"
         d="m 157.3012,218.00298 h 13.98512 l 9.44941,-15.875 v -42.71131 z"
         id="path6085"
         inkscape:connector-curvature="0" />
    </g>
    <g
       transform="rotate(90,141.58364,217.625)"
       id="g6095"
       inkscape:export-filename="/Users/mschierle/github/performance-game/public/img/ship_shielded.png"
       inkscape:export-xdpi="162.67"
       inkscape:export-ydpi="162.67">
      <path
         style="fill:#848080;fill-opacity:1;stroke:#000000;stroke-width:0.26458332px;stroke-linecap:butt;stroke-linejoin:miter;stroke-opacity:1"
         d="M 204.48512,217.625 H 190.5 l -9.44941,-15.875 v -42.71131 z"
         id="path6091"
         inkscape:connector-curvature="0" />
      <path
         inkscape:connector-curvature="0"
         id="path6093"
         d="m 157.3012,218.00298 h 13.98512 l 9.44941,-15.875 v -42.71131 z"
         style="fill:#4a4646;fill-opacity:1;stroke:#000000;stroke-width:0.26458332px;stroke-linecap:butt;stroke-linejoin:miter;stroke-opacity:1" />
    </g>
    <circle
       style="opacity:0.975;fill:url(#radialGradient6105);fill-opacity:1;stroke:#0a0083;stroke-width:1.03299999;stroke-linejoin:round;stroke-miterlimit:4;stroke-dasharray:none;stroke-opacity:1"
       id="path6097"
       cx="165.74255"
       cy="257.5015"
       r="36.474705"
       inkscape:export-filename="/Users/mschierle/github/performance-game/public/img/ship_shielded.png"
       inkscape:export-xdpi="162.67"
       inkscape:export-ydpi="162.67" />
  </g>
  <g
     id="g14100"
     inkscape:label="Gear14"
     transform="translate(-97.254136,259.06606)"
     style="stroke:none;stroke-opacity:1;fill:#7c7c7c;fill-opacity:0.74901962">
    <path
       style="fill:#7c7c7c;fill-opacity:0.74901961;stroke:none;stroke-width:0.99999994;stroke-opacity:1"
       d="M -384.51367 878.70703 L -395.89258 881.30469 L -397.01172 895.02148 L -396.71289 896.35156 L -392.93555 907.08594 L -408.10352 914.38867 L -414.13867 904.74414 L -414.99219 903.68164 L -426.41602 896.00195 L -435.54102 903.2793 L -430.59766 916.125 L -429.75 917.19336 L -421.69141 925.22461 L -432.1875 938.38672 L -441.81055 932.31641 L -443.04102 931.72852 L -456.66406 929.76758 L -461.72852 940.2832 L -451.69922 949.71094 L -450.47461 950.30664 L -439.72656 954.04492 L -443.47266 970.45703 L -454.77734 969.16406 L -456.14062 969.16797 L -469.26562 973.31055 L -469.26562 984.98438 L -456.14062 989.12695 L -454.77734 989.13086 L -443.47266 987.83789 L -439.72656 1004.25 L -450.47461 1007.9883 L -451.69922 1008.584 L -461.72852 1018.0117 L -456.66406 1028.5273 L -443.04102 1026.5664 L -441.81055 1025.9785 L -432.1875 1019.9082 L -421.69141 1033.0684 L -429.75 1041.0996 L -430.59766 1042.1699 L -435.54102 1055.0137 L -426.41602 1062.291 L -414.99219 1054.6133 L -414.13867 1053.5508 L -408.10352 1043.9043 L -392.93555 1051.209 L -396.71289 1061.9434 L -397.01172 1063.2734 L -395.89258 1076.9902 L -384.51367 1079.5879 L -377.55469 1067.7129 L -377.24609 1066.3848 L -375.99219 1055.0762 L -359.1582 1055.0762 L -357.9043 1066.3848 L -357.5957 1067.7129 L -350.63672 1079.5879 L -339.25586 1076.9902 L -338.13867 1063.2734 L -338.4375 1061.9434 L -342.21484 1051.209 L -327.04688 1043.9043 L -321.00977 1053.5508 L -320.15625 1054.6133 L -308.73438 1062.291 L -299.60742 1055.0137 L -304.55273 1042.1699 L -305.39844 1041.0996 L -313.45898 1033.0684 L -302.96289 1019.9082 L -293.33984 1025.9785 L -292.10938 1026.5664 L -278.48633 1028.5273 L -273.42188 1018.0117 L -283.44922 1008.584 L -284.67578 1007.9883 L -295.42188 1004.25 L -291.67578 987.83789 L -280.37109 989.13086 L -279.00781 989.12695 L -265.88281 984.98438 L -265.88281 973.31055 L -279.00781 969.16797 L -280.37109 969.16406 L -291.67578 970.45703 L -295.42188 954.04492 L -284.67578 950.30664 L -283.44922 949.71094 L -273.42188 940.2832 L -278.48633 929.76758 L -292.10938 931.72852 L -293.33984 932.31641 L -302.96289 938.38672 L -313.45898 925.22461 L -305.39844 917.19336 L -304.55273 916.125 L -299.60742 903.2793 L -308.73438 896.00195 L -320.15625 903.68164 L -321.00977 904.74414 L -327.04688 914.38867 L -342.21484 907.08594 L -338.4375 896.35156 L -338.13867 895.02148 L -339.25586 881.30469 L -350.63672 878.70703 L -357.5957 890.58008 L -357.9043 891.9082 L -359.1582 903.21875 L -375.99219 903.21875 L -377.24609 891.9082 L -377.55469 890.58008 L -384.51367 878.70703 z M -367.57422 964.14648 A 15 15 0 0 1 -352.57422 979.14648 A 15 15 0 0 1 -367.57422 994.14648 A 15 15 0 0 1 -382.57422 979.14648 A 15 15 0 0 1 -367.57422 964.14648 z "
       transform="matrix(0.26458333,0,0,0.26458333,97.254136,-259.06606)"
       id="path14096" />
  </g>
  <g
     transform="translate(-57.566636,250.75059)"
     inkscape:label="Gear16"
     id="g14534"
     style="fill:#252525;fill-opacity:0.74901961">
    <path
       style="fill:#252525;fill-opacity:0.74901961;stroke:#000000;stroke-width:0.99999994"
       d="M -220.56836 890.50195 L -222.56641 897.03516 L -222.58008 897.8125 L -222.02148 903.37695 L -230.43359 905.05078 L -232.04883 899.69727 L -232.35938 898.98242 L -236.70508 893.71094 L -242.23828 896.00195 L -241.58203 902.80273 L -241.29688 903.52734 L -238.65234 908.45508 L -245.7832 913.2207 L -249.32422 908.89062 L -249.88477 908.34961 L -255.91602 905.14258 L -260.15039 909.37695 L -256.94336 915.41016 L -256.40234 915.9707 L -252.07422 919.50977 L -256.83789 926.64062 L -261.76562 923.99609 L -262.49023 923.71094 L -269.29102 923.05664 L -271.58203 928.58984 L -266.31055 932.93555 L -265.59766 933.24609 L -260.24219 934.85938 L -261.91602 943.27148 L -267.48047 942.71289 L -268.25977 942.72656 L -274.79297 944.72461 L -274.79297 950.71289 L -268.25977 952.71094 L -267.48047 952.72461 L -261.91602 952.16602 L -260.24219 960.57812 L -265.59766 962.19141 L -266.31055 962.50195 L -271.58203 966.84766 L -269.29102 972.38086 L -262.49023 971.72656 L -261.76562 971.44141 L -256.83789 968.79688 L -252.07422 975.92773 L -256.40234 979.4668 L -256.94336 980.02734 L -260.15039 986.06055 L -255.91602 990.29492 L -249.88477 987.08789 L -249.32422 986.54688 L -245.7832 982.2168 L -238.65234 986.98242 L -241.29688 991.91016 L -241.58203 992.63477 L -242.23828 999.43555 L -236.70508 1001.7266 L -232.35938 996.45508 L -232.04883 995.74023 L -230.43359 990.38672 L -222.02148 992.06055 L -222.58008 997.625 L -222.56641 998.40234 L -220.56836 1004.9355 L -214.58008 1004.9355 L -212.58203 998.40234 L -212.56836 997.625 L -213.12695 992.06055 L -204.71484 990.38672 L -203.10156 995.74023 L -202.79102 996.45508 L -198.44531 1001.7266 L -192.91211 999.43555 L -193.56641 992.63477 L -193.85156 991.91016 L -196.49805 986.98242 L -189.36523 982.2168 L -185.82617 986.54688 L -185.26562 987.08789 L -179.23242 990.29492 L -174.99805 986.06055 L -178.20508 980.02734 L -178.74609 979.4668 L -183.07617 975.92773 L -178.31055 968.79688 L -173.38281 971.44141 L -172.6582 971.72656 L -165.85938 972.38086 L -163.56641 966.84766 L -168.83789 962.50195 L -169.55273 962.19141 L -174.90625 960.57812 L -173.23438 952.16602 L -167.66992 952.72461 L -166.89062 952.71094 L -160.35742 950.71289 L -160.35742 944.72461 L -166.89062 942.72656 L -167.66992 942.71289 L -173.23438 943.27148 L -174.90625 934.85938 L -169.55273 933.24609 L -168.83789 932.93555 L -163.56641 928.58984 L -165.85938 923.05664 L -172.6582 923.71094 L -173.38281 923.99609 L -178.31055 926.64062 L -183.07617 919.50977 L -178.74609 915.9707 L -178.20508 915.41016 L -174.99805 909.37695 L -179.23242 905.14258 L -185.26562 908.34961 L -185.82617 908.89062 L -189.36523 913.2207 L -196.49805 908.45508 L -193.85156 903.52734 L -193.56641 902.80273 L -192.91211 896.00195 L -198.44531 893.71094 L -202.79102 898.98242 L -203.10156 899.69727 L -204.71484 905.05078 L -213.12695 903.37695 L -212.56836 897.8125 L -212.58203 897.03516 L -214.58008 890.50195 L -220.56836 890.50195 z M -217.57422 932.71875 A 15 15 0 0 1 -202.57422 947.71875 A 15 15 0 0 1 -217.57422 962.71875 A 15 15 0 0 1 -232.57422 947.71875 A 15 15 0 0 1 -217.57422 932.71875 z "
       transform="matrix(0.26458333,0,0,0.26458333,57.566636,-250.75059)"
       id="path14530" />
  </g>
  <g
     id="g15751"
     inkscape:label="Gear12"
     transform="translate(-64.748183,271.91725)"
     style="fill:#a6a4a4;fill-opacity:0.74901961">
    <path
       style="fill:#a6a4a4;fill-opacity:0.74901961;stroke:#000000;stroke-width:0.99999994"
       d="M -246.55273 998.81055 L -247.95898 1003.1035 L -247.95312 1003.4824 L -247.45508 1007.2109 L -252.60156 1008.5898 L -254.0332 1005.1113 L -254.21875 1004.7812 L -257.58203 1001.7656 L -260.76172 1003.6016 L -259.83203 1008.0215 L -259.63672 1008.3477 L -257.3418 1011.3262 L -261.10938 1015.0938 L -264.08984 1012.7988 L -264.41602 1012.6035 L -268.83398 1011.6758 L -270.66992 1014.8535 L -267.65625 1018.2168 L -267.32422 1018.4023 L -263.84766 1019.8359 L -265.22656 1024.9805 L -268.95312 1024.4844 L -269.33398 1024.4785 L -273.625 1025.8828 L -273.625 1029.5547 L -269.33398 1030.959 L -268.95312 1030.9531 L -265.22656 1030.457 L -263.84766 1035.6016 L -267.32422 1037.0352 L -267.65625 1037.2207 L -270.66992 1040.584 L -268.83398 1043.7617 L -264.41602 1042.834 L -264.08984 1042.6387 L -261.10938 1040.3438 L -257.3418 1044.1113 L -259.63672 1047.0898 L -259.83203 1047.416 L -260.76172 1051.8359 L -257.58203 1053.6719 L -254.21875 1050.6562 L -254.0332 1050.3262 L -252.60156 1046.8477 L -247.45508 1048.2266 L -247.95312 1051.9551 L -247.95898 1052.334 L -246.55273 1056.627 L -242.88281 1056.627 L -241.47656 1052.334 L -241.48242 1051.9551 L -241.98047 1048.2266 L -236.83398 1046.8477 L -235.40039 1050.3262 L -235.2168 1050.6562 L -231.85352 1053.6719 L -228.67383 1051.8359 L -229.60352 1047.416 L -229.79883 1047.0898 L -232.0918 1044.1113 L -228.32617 1040.3438 L -225.3457 1042.6387 L -225.01953 1042.834 L -220.59961 1043.7617 L -218.76562 1040.584 L -221.7793 1037.2207 L -222.11133 1037.0352 L -225.58789 1035.6016 L -224.20898 1030.457 L -220.48242 1030.9531 L -220.10156 1030.959 L -215.80859 1029.5547 L -215.80859 1025.8828 L -220.10156 1024.4785 L -220.48242 1024.4844 L -224.20898 1024.9805 L -225.58789 1019.8359 L -222.11133 1018.4023 L -221.7793 1018.2168 L -218.76562 1014.8535 L -220.59961 1011.6758 L -225.01953 1012.6035 L -225.3457 1012.7988 L -228.32617 1015.0938 L -232.0918 1011.3262 L -229.79883 1008.3477 L -229.60352 1008.0215 L -228.67383 1003.6016 L -231.85352 1001.7656 L -235.2168 1004.7812 L -235.40039 1005.1113 L -236.83398 1008.5898 L -241.98047 1007.2109 L -241.48242 1003.4824 L -241.47656 1003.1035 L -242.88281 998.81055 L -246.55273 998.81055 z M -244.7168 1020.2188 A 7.5 7.5 0 0 1 -237.2168 1027.7188 A 7.5 7.5 0 0 1 -244.7168 1035.2188 A 7.5 7.5 0 0 1 -252.2168 1027.7188 A 7.5 7.5 0 0 1 -244.7168 1020.2188 z "
       transform="matrix(0.26458333,0,0,0.26458333,64.748183,-271.91725)"
       id="path15747" />
  </g>
</svg>
